<?xml version="1.0" encoding="UTF-8"?><svg xmlns="http://www.w3.org/2000/svg" xmlns:xlink="http://www.w3.org/1999/xlink" viewBox="0 0 2475 1650"><defs><style>.dd{fill:url(#u);}.de{fill:url(#t);}.df{fill:url(#v);}.dg{fill:url(#e);}.dh{fill:url(#d);}.di{fill:url(#g);}.dj{fill:url(#f);}.dk{fill:url(#p);}.dl{fill:url(#o);}.dm{fill:url(#s);}.dn{fill:url(#q);}.do{fill:url(#r);}.dp{fill:url(#i);}.dq{fill:url(#h);}.dr{fill:url(#k);}.ds{fill:url(#j);}.dt{fill:url(#m);}.du{fill:url(#l);}.dv{fill:url(#n);}.dw{fill:url(#c);}.dx{fill:url(#x);}.dy{fill:url(#w);}.e`{fill:url(#y);}.ea{fill:url(#aa);}.eb{fill:url(#ag);}.ec{fill:url(#ab);}.ed{fill:url(#ah);}.ee{fill:url(#ai);}.ef{fill:url(#ad);}.eg{fill:url(#ao);}.eh{fill:url(#aj);}.ei{fill:url(#ae);}.ej{fill:url(#ap);}.ek{fill:url(#af);}.el{fill:url(#a`);}.em{fill:url(#as);}.en{fill:url(#aq);}.eo{fill:url(#ar);}.ep{fill:url(#al);}.eq{fill:url(#ax);}.er{fill:url(#aw);}.es{fill:url(#am);}.et{fill:url(#ac);}.eu{fill:url(#an);}.ev{fill:url(#at);}.ew{fill:url(#ay);}.ex{fill:url(#au);}.ey{fill:url(#ak);}.f`{fill:url(#av);}.fa{fill:url(#cc);}.fb{fill:url(#cb);}.fc{fill:url(#ca);}.fd{fill:url(#cd);}.fe{fill:url(#ck);}.ff{fill:url(#cj);}.fg{fill:url(#ci);}.fh{fill:url(#c`);}.fi{fill:url(#cg);}.fj{fill:url(#cf);}.fk{fill:url(#ce);}.fl{fill:url(#be);}.fm{fill:url(#bg);}.fn{fill:url(#bf);}.fo{fill:url(#bm);}.fp{fill:url(#bd);}.fq{fill:url(#bo);}.fr{fill:url(#bn);}.fs{fill:url(#ba);}.ft{fill:url(#bh);}.fu{fill:url(#bc);}.fv{fill:url(#bb);}.fw{fill:url(#cx);}.fx{fill:url(#cl);}.fy{fill:url(#cs);}.g`{fill:url(#cr);}.ga{fill:url(#cq);}.gb{fill:url(#ch);}.gc{fill:url(#co);}.gd{fill:url(#cn);}.ge{fill:url(#cm);}.gf{fill:url(#ct);}.gg{fill:url(#cy);}.gh{fill:url(#cp);}.gi{fill:url(#cw);}.gj{fill:url(#cv);}.gk{fill:url(#cu);}.gl{fill:url(#b`);}.gm{fill:url(#by);}.gn{fill:url(#bu);}.go{fill:url(#bl);}.gp{fill:url(#bw);}.gq{fill:url(#bv);}.gr{fill:url(#bi);}.gs{fill:url(#bp);}.gt{fill:url(#bk);}.gu{fill:url(#bj);}.gv{fill:url(#bt);}.gw{fill:url(#bq);}.gx{fill:url(#bx);}.gy{fill:url(#bs);}.h`{fill:url(#br);}.ha{fill:url(#d`);}.hb{fill:url(#dc);}.hc{fill:url(#db);}.hd{fill:url(#da);}.he{fill:#fff;}.hf{fill:#91b3fa;}.hg{fill:#7d97f4;}.hh{fill:#bdd0fb;}.hi{opacity:.24;}.hj{opacity:.64;}</style><linearGradient id="c" x1="110.62" y1="825.67" x2="2306.57" y2="825.67" gradientTransform="matrix(1, 0, 0, 1, 0, 0)" gradientUnits="userSpaceOnUse"><stop offset="0" stop-color="#dae3fe"/><stop offset="1" stop-color="#e9effd"/></linearGradient><linearGradient id="d" x1="562.31" y1="490.07" x2="643.99" y2="490.07" xlink:href="#c"/><linearGradient id="e" x1="302.37" y1="1227.71" x2="694.87" y2="1227.71" xlink:href="#c"/><linearGradient id="f" x1="1973.97" y1="1071.76" x2="2259.93" y2="1071.76" xlink:href="#c"/><linearGradient id="g" x1="1080.81" y1="1396.79" x2="1448.32" y2="294.24" gradientTransform="matrix(1, 0, 0, 1, 0, 0)" gradientUnits="userSpaceOnUse"><stop offset="0" stop-color="#09005d"/><stop offset="1" stop-color="#1a0f91"/></linearGradient><linearGradient id="h" x1="1092.95" y1="1583.77" x2="1353.97" y2="407.65" gradientTransform="matrix(1, 0, 0, 1, 0, 0)" gradientUnits="userSpaceOnUse"><stop offset="0" stop-color="#4042e2"/><stop offset="1" stop-color="#4f52ff"/></linearGradient><linearGradient id="i" x1="1216.73" y1="685.91" x2="1228.73" y2="1114.95" xlink:href="#g"/><linearGradient id="j" x1="2028.58" y1="351.08" x2="1818.55" y2="804.12" xlink:href="#g"/><linearGradient id="k" x1="2120.92" y1="393.88" x2="1910.9" y2="846.93" xlink:href="#g"/><linearGradient id="l" x1="2261.26" y1="458.95" x2="2051.24" y2="911.99" xlink:href="#g"/><linearGradient id="m" x1="2153.63" y1="409.05" x2="1943.61" y2="862.09" xlink:href="#g"/><linearGradient id="n" x1="2008.2" y1="341.63" x2="1798.18" y2="794.68" gradientTransform="translate(3398.77 2015.57) rotate(-180)" xlink:href="#g"/><linearGradient id="o" x1="2080.85" y1="375.31" x2="1870.83" y2="828.36" xlink:href="#g"/><linearGradient id="p" x1="2149.91" y1="407.32" x2="1939.89" y2="860.37" xlink:href="#g"/><linearGradient id="q" x1="2217.91" y1="438.85" x2="2007.89" y2="891.9" xlink:href="#g"/><linearGradient id="r" x1="2287.48" y1="471.1" x2="2077.46" y2="924.14" xlink:href="#g"/><linearGradient id="s" x1="2355.93" y1="502.83" x2="2145.91" y2="955.87" xlink:href="#g"/><linearGradient id="t" x1="814.57" y1="870.18" x2="826.58" y2="870.18" gradientTransform="matrix(1, 0, 0, 1, 0, 0)" gradientUnits="userSpaceOnUse"><stop offset="0" stop-color="#fe7062"/><stop offset="1" stop-color="#ff928e"/></linearGradient><linearGradient id="u" x1="805.31" y1="676.4" x2="1231.14" y2="676.4" xlink:href="#t"/><linearGradient id="v" x1="1243.23" y1="559.51" x2="1259.67" y2="559.51" xlink:href="#t"/><linearGradient id="w" x1="1365.79" y1="741.68" x2="1377.14" y2="741.68" xlink:href="#t"/><linearGradient id="x" x1="943.71" y1="923.75" x2="1381.18" y2="923.75" xlink:href="#t"/><linearGradient id="y" x1="916.35" y1="1021.45" x2="932.57" y2="1021.45" xlink:href="#t"/><linearGradient id="a`" x1="4895.61" y1="1203.18" x2="5563.41" y2="2381.32" gradientTransform="translate(4804.14 -2871) rotate(119.58)" xlink:href="#t"/><linearGradient id="aa" x1="1230.1" y1="-9.79" x2="1161.1" y2="395.25" gradientTransform="matrix(1, 0, 0, 1, 0, 0)" gradientUnits="userSpaceOnUse"><stop offset="0" stop-color="#ff928e"/><stop offset="1" stop-color="#feb3b1"/></linearGradient><linearGradient id="ab" x1="1230.72" y1="-9.69" x2="1161.71" y2="395.35" xlink:href="#aa"/><linearGradient id="ac" x1="1460.04" y1="358.3" x2="1472.24" y2="795.52" xlink:href="#t"/><linearGradient id="ad" x1="1587.58" y1="-225.33" x2="1515.57" y2="164.71" xlink:href="#aa"/><linearGradient id="ae" x1="1328.92" y1="529.76" x2="1342.95" y2="529.76" xlink:href="#t"/><linearGradient id="af" x1="1308.7" y1="403.04" x2="1480.84" y2="403.04" xlink:href="#t"/><linearGradient id="ag" x1="1495.85" y1="308.54" x2="1513.32" y2="308.54" xlink:href="#t"/><linearGradient id="ah" x1="1588.77" y1="384.12" x2="1602.23" y2="384.12" xlink:href="#t"/><linearGradient id="ai" x1="1437.16" y1="505.61" x2="1616.58" y2="505.61" xlink:href="#t"/><linearGradient id="aj" x1="1405.44" y1="592.25" x2="1422.79" y2="592.25" xlink:href="#t"/><linearGradient id="ak" x1="1587.59" y1="-225.32" x2="1515.58" y2="164.72" xlink:href="#aa"/><linearGradient id="al" x1="624.52" y1="997.3" x2="629.77" y2="997.3" xlink:href="#t"/><linearGradient id="am" x1="620.88" y1="913.76" x2="804.52" y2="913.76" xlink:href="#t"/><linearGradient id="an" x1="809.39" y1="862.99" x2="817.46" y2="862.99" xlink:href="#t"/><linearGradient id="ao" x1="863.78" y1="943.09" x2="868.62" y2="943.09" xlink:href="#t"/><linearGradient id="ap" x1="681.41" y1="1021.58" x2="870.17" y2="1021.58" xlink:href="#t"/><linearGradient id="aq" x1="669.01" y1="1064.03" x2="676.94" y2="1064.03" xlink:href="#t"/><linearGradient id="ar" x1="852.53" y1="785.67" x2="692.55" y2="1052.75" xlink:href="#t"/><linearGradient id="as" x1="928.23" y1="145.32" x2="835.22" y2="562.36" xlink:href="#aa"/><linearGradient id="at" x1="928.48" y1="145.38" x2="835.47" y2="562.42" xlink:href="#aa"/><linearGradient id="au" x1="1646.96" y1="566.33" x2="1658.91" y2="566.33" xlink:href="#t"/><linearGradient id="av" x1="1641.44" y1="432" x2="1919.02" y2="432" xlink:href="#t"/><linearGradient id="aw" x1="1932.35" y1="358.92" x2="1948.81" y2="358.92" xlink:href="#t"/><linearGradient id="ax" x1="2016.58" y1="482.87" x2="2027.88" y2="482.87" xlink:href="#t"/><linearGradient id="ay" x1="1744.33" y1="609.37" x2="2030.23" y2="609.37" xlink:href="#t"/><linearGradient id="b`" x1="1715.74" y1="669.6" x2="1731.99" y2="669.6" xlink:href="#t"/><linearGradient id="ba" x1="1851.81" y1="500.37" x2="2046.65" y2="317.22" xlink:href="#t"/><linearGradient id="bb" x1="1790.33" y1="-208.1" x2="1811.33" y2="124.94" xlink:href="#aa"/><linearGradient id="bc" x1="1790.87" y1="-208.13" x2="1811.87" y2="124.9" xlink:href="#aa"/><linearGradient id="bd" x1="1923.4" y1="349.29" x2="1935.22" y2="349.29" xlink:href="#t"/><linearGradient id="be" x1="1921.35" y1="271.64" x2="2060.29" y2="271.64" xlink:href="#t"/><linearGradient id="bf" x1="2074.24" y1="238.83" x2="2090.78" y2="238.83" xlink:href="#t"/><linearGradient id="bg" x1="2122.56" y1="308.1" x2="2133.72" y2="308.1" xlink:href="#t"/><linearGradient id="bh" x1="1990.49" y1="381.61" x2="2133.65" y2="381.61" xlink:href="#t"/><linearGradient id="bi" x1="1961.13" y1="407.52" x2="1977.46" y2="407.52" xlink:href="#t"/><linearGradient id="bj" x1="2149.32" y1="181.4" x2="1712.1" y2="693.86" xlink:href="#t"/><linearGradient id="bk" x1="2132.88" y1="-214.78" x2="2063.88" y2="139.25" xlink:href="#aa"/><linearGradient id="bl" x1="2133.09" y1="-214.74" x2="2064.09" y2="139.29" xlink:href="#aa"/><linearGradient id="bm" x1="1137.9" y1="545.88" x2="1143.11" y2="545.88" xlink:href="#t"/><linearGradient id="bn" x1="1135.56" y1="483.69" x2="1266.8" y2="483.69" xlink:href="#t"/><linearGradient id="bo" x1="1271.74" y1="448.34" x2="1279.82" y2="448.34" xlink:href="#t"/><linearGradient id="bp" x1="1312.49" y1="507.71" x2="1317.29" y2="507.71" xlink:href="#t"/><linearGradient id="bq" x1="1183.12" y1="566.2" x2="1318.22" y2="566.2" xlink:href="#t"/><linearGradient id="br" x1="1170.61" y1="595.52" x2="1178.57" y2="595.52" xlink:href="#t"/><linearGradient id="bs" x1="1163.28" y1="673.74" x2="1245.98" y2="477.16" xlink:href="#t"/><linearGradient id="bt" x1="1248.83" y1="207.38" x2="1238.83" y2="351.38" xlink:href="#aa"/><linearGradient id="bu" x1="1249.05" y1="207.39" x2="1239.05" y2="351.39" xlink:href="#aa"/><linearGradient id="bv" x1="1310.95" y1="1607.05" x2="1284.79" y2="1658.5" gradientTransform="translate(-1003.89 130.67) rotate(-12.48)" xlink:href="#g"/><linearGradient id="bw" x1="1261.2" y1="1627.53" x2="1287.26" y2="1627.53" gradientTransform="translate(-1003.89 130.67) rotate(-12.48)" xlink:href="#aa"/><linearGradient id="bx" x1="1225.13" y1="1558.57" x2="1335.88" y2="1403.35" gradientTransform="translate(-1003.89 130.67) rotate(-12.48)" gradientUnits="userSpaceOnUse"><stop offset="0" stop-color="#2b3582"/><stop offset=".23" stop-color="#242a70"/><stop offset=".73" stop-color="#19154e"/><stop offset="1" stop-color="#150e42"/></linearGradient><linearGradient id="by" x1="1295.77" y1="1659.07" x2="1205.07" y2="1777.67" gradientTransform="translate(-1003.89 130.67) rotate(-12.48)" xlink:href="#g"/><linearGradient id="c`" x1="1250.38" y1="1684.75" x2="1320.46" y2="1684.75" gradientTransform="translate(-1003.89 130.67) rotate(-12.48)" gradientUnits="userSpaceOnUse"><stop offset="0" stop-color="#53d8ff"/><stop offset="1" stop-color="#3840f7"/></linearGradient><linearGradient id="ca" x1="1242.36" y1="1651.58" x2="1266.82" y2="1651.58" gradientTransform="translate(-1003.89 130.67) rotate(-12.48)" xlink:href="#aa"/><linearGradient id="cb" x1="1185.22" y1="1635.92" x2="1191.32" y2="1428.38" gradientTransform="translate(-1003.89 130.67) rotate(-12.48)" xlink:href="#g"/><linearGradient id="cc" x1="1117.46" y1="1515.54" x2="879.46" y2="1700.54" gradientTransform="translate(-1003.89 130.67) rotate(-12.48)" xlink:href="#t"/><linearGradient id="cd" x1="1330.38" y1="1394.13" x2="1415.7" y2="1394.13" gradientTransform="translate(-1003.89 130.67) rotate(-12.48)" xlink:href="#aa"/><linearGradient id="ce" x1="-1811.3" y1="2959.71" x2="-2049.3" y2="3144.71" gradientTransform="translate(937.32) rotate(-180) scale(1 -1)" xlink:href="#t"/><linearGradient id="cf" x1="1235.67" y1="1243.61" x2="1292.28" y2="1243.61" gradientTransform="translate(-1003.89 130.67) rotate(-12.48)" xlink:href="#aa"/><linearGradient id="cg" x1="-1789.06" y1="2988.33" x2="-2027.06" y2="3173.33" gradientTransform="translate(937.32) rotate(-180) scale(1 -1)" xlink:href="#t"/><linearGradient id="ch" x1="439.85" y1="1048.57" x2="427.85" y2="1133.57" xlink:href="#aa"/><linearGradient id="ci" x1="11477.35" y1="1025.73" x2="11410.71" y2="1113.88" gradientTransform="translate(-10942.12)" xlink:href="#aa"/><linearGradient id="cj" x1="-211.62" y1="979.66" x2="-248.63" y2="1161.26" gradientTransform="translate(301.93) rotate(-180) scale(1 -1)" xlink:href="#g"/><linearGradient id="ck" x1="11382.44" y1="1094.56" x2="11434.28" y2="1041.38" gradientTransform="translate(-10942.12)" xlink:href="#aa"/><linearGradient id="cl" x1="10841.8" y1="1827.43" x2="10730.82" y2="1857.84" gradientTransform="translate(11415.77 -86.8) rotate(-177.17) scale(1 -1)" xlink:href="#g"/><linearGradient id="cm" x1="888.53" y1="1285.1" x2="669.53" y2="1166.1" xlink:href="#g"/><linearGradient id="cn" x1="10729.93" y1="1151.88" x2="10694.2" y2="1205.68" gradientTransform="translate(11424.44) rotate(-180) scale(1 -1)" xlink:href="#h"/><linearGradient id="co" x1="1545.61" y1="711.37" x2="1599.84" y2="855.08" xlink:href="#aa"/><linearGradient id="cp" x1="1619.28" y1="627.52" x2="1481.28" y2="896.52" xlink:href="#t"/><linearGradient id="cq" x1="6060.88" y1="979.58" x2="6077.23" y2="979.58" gradientTransform="translate(7797.44) rotate(-180) scale(1 -1)" xlink:href="#aa"/><linearGradient id="cr" x1="6147.53" y1="978.51" x2="6161.16" y2="978.51" gradientTransform="translate(7797.44) rotate(-180) scale(1 -1)" xlink:href="#aa"/><linearGradient id="cs" x1="1673.59" y1="938.38" x2="1677.65" y2="687.57" xlink:href="#g"/><linearGradient id="ct" x1="6181.43" y1="768.91" x2="6125.63" y2="841.05" gradientTransform="translate(7797.44) rotate(-180) scale(1 -1)" xlink:href="#g"/><linearGradient id="cu" x1="1651.6" y1="644.1" x2="1513.6" y2="913.1" xlink:href="#t"/><linearGradient id="cv" x1="1598.05" y1="578.32" x2="1613.38" y2="649.99" xlink:href="#aa"/><linearGradient id="cw" x1="5229.07" y1="3280.29" x2="5244.74" y2="3236.62" gradientTransform="translate(7797.44) rotate(-180) scale(1 -1)" xlink:href="#aa"/><linearGradient id="cx" x1="1617.86" y1="515.28" x2="1611.52" y2="538.95" xlink:href="#g"/><linearGradient id="cy" x1="5216.32" y1="3275.71" x2="5231.98" y2="3232.04" gradientTransform="translate(7797.44) rotate(-180) scale(1 -1)" xlink:href="#aa"/><linearGradient id="d`" x1="1745" y1="579.41" x2="1735" y2="615.41" xlink:href="#aa"/><linearGradient id="da" x1="1683.26" y1="660.34" x2="1545.26" y2="929.34" xlink:href="#t"/><linearGradient id="db" x1="1547.32" y1="674.12" x2="1535.32" y2="705.46" xlink:href="#aa"/><linearGradient id="dc" x1="1746.91" y1="579.94" x2="1736.91" y2="615.94" xlink:href="#aa"/></defs><g id="a"><rect class="he" width="2475" height="1650"/></g><g id="b"><g><path class="dw" d="M1189.58,1498.53s-745.62,8.41-953.31-180.87c-207.69-189.28-129.51-377.98,29.51-431.44,159.03-53.46,186.15-109.05,100.58-184.04-85.57-74.99-194.24-228.92-13.8-383.61,180.44-154.69,386.34,67.5,547.61,37.99,161.28-29.5,97.4-128.87,309.49-60.25,212.09,68.62,165.33-131.18,335.83-149.29,170.51-18.11,153.03,207.82,328.41,122.54,175.38-85.28,318.83-73.51,394.23,61.92,75.4,135.44,42.65,317.85-122.77,426.57-165.41,108.71-147.66,101.3-85.84,208.13,61.82,106.83,117.25,458.13-164.18,508.3-281.43,50.17-705.77,24.04-705.77,24.04Z"/><g><path class="hf" d="M708.2,1183.03s-126.13-532.57-387.53-823.13c-17.57-19.53-49.77-12.01-56.71,13.33-46.4,169.44-135.45,683.41,444.24,809.79Z"/><path class="hh" d="M655.14,1148.68c1.3,1.27-.42,3.28-1.88,2.2-53.78-40-261.72-236.56-338.48-628.25-.25-1.26,1.6-1.74,1.96-.51,26.1,90.8,132.82,425.59,338.4,626.56Z"/></g><g><path class="hh" d="M670.3,774.96s50.28-383.25-49.44-640.63c-6.7-17.3-29.85-20.41-40.79-5.42-73.13,100.24-260.81,417.24,90.23,646.05Z"/><path class="dh" d="M643.88,738.98c.54,1.17-1.1,2.06-1.79,.98-25.48-39.9-113.47-221.82-65.92-499.67,.15-.89,1.49-.74,1.42,.16-5.53,66.49-19.03,314.3,66.29,498.54Z"/></g><g><path class="hh" d="M164.69,938.35c-2.51-1.55-1.21-5.43,1.73-5.11,46.88,5.08,217.31,33.96,345.19,191.3,117.01,143.96,175.51,264.12,195.47,309.7,3.95,9.01-3.26,18.95-13.06,17.97-58.03-5.78-219.68-30.46-287.29-129.12-80.8-117.9-122.08-310.66-242.04-384.74Z"/><path class="dg" d="M302.37,1019.76s152.63,57.6,392.5,415.9c0,0-260.14-347.32-392.5-415.9Z"/></g><g><path class="hh" d="M1855.93,1446.06s147.88-63.68,186.07-253.2c37.12-184.21,46.27-443.53,256.82-512.34,7.09-2.32,13.55,4.95,10.41,11.72-18.56,40.01-62.69,144.62-74.49,257.72-15.06,144.37-123.64,483.75-378.8,496.09Z"/><path class="dj" d="M2256.36,754.42l-.74,.52c-.32,.22-.66,.47-1.01,.74-.69,.51-1.39,1.06-2.09,1.61-1.4,1.11-2.79,2.26-4.16,3.46-2.74,2.38-5.43,4.88-8.05,7.45-5.23,5.15-10.19,10.63-14.87,16.34-4.71,5.69-9.06,11.69-13.22,17.81-4.21,6.09-8.04,12.45-11.7,18.9-14.44,25.95-24.6,54.25-31,83.41-3.18,14.6-5.38,29.43-6.78,44.35l-.91,11.21-.53,11.25-.54,11.48c-.17,3.85-.35,7.7-.66,11.54-2.02,30.77-6.22,61.33-12.27,91.48-6.06,30.16-14.08,59.89-23.93,88.99-4.99,14.53-10.54,28.86-16.46,43.03-6.02,14.13-12.54,28.03-19.51,41.7-7.06,13.63-14.66,26.97-22.77,39.98-8.12,13.01-17.02,25.53-26.41,37.63-9.38,12.12-19.52,23.64-30.31,34.49-10.77,10.87-22.28,20.98-34.47,30.17,11.8-9.69,22.79-20.29,33.13-31.46,10.33-11.18,19.97-22.97,28.83-35.33,8.88-12.33,17.18-25.07,24.87-38.16,7.64-13.12,14.77-26.53,21.35-40.21,6.49-13.72,12.52-27.65,18.06-41.77,5.44-14.16,10.46-28.47,15-42.94,9.08-28.93,16.33-58.41,21.63-88.23,5.3-29.81,8.75-59.94,10.06-90.12,.43-7.58,.4-15.02,.7-22.71l.41-11.62,.8-11.61c1.27-15.47,3.37-30.91,6.5-46.17,3.15-15.25,7.25-30.36,12.65-45.04,5.4-14.67,11.93-28.96,19.58-42.64,7.69-13.66,16.53-26.73,26.72-38.73,5.08-6.01,10.46-11.79,16.18-17.25,2.86-2.74,5.81-5.39,8.91-7.92,1.54-1.28,3.12-2.52,4.74-3.74,.81-.61,1.63-1.22,2.49-1.82,.42-.3,.85-.6,1.32-.91l.71-.47,.95-.58c3.21-1.97,7.41-.95,9.38,2.26,1.89,3.08,1.03,7.08-1.88,9.13l-.68,.48Z"/></g><g><g><path class="di" d="M2029.76,1436.79c0,15.81-12.95,28.75-28.78,28.75H444.89c-15.83,0-28.78-12.94-28.78-28.75l-12.95-894.25c0-15.81,18.63-46.68,52.77-44.36l1520.79-39.35c19.86-.51,39.06,7.13,53.12,21.15,14.06,14.02,21.76,33.18,21.29,53.02l-21.37,903.79Z"/><path class="dq" d="M2001.35,1409.2c0,14.97-12.25,27.22-27.22,27.22H482.42c-14.97,0-27.22-12.25-27.22-27.22l-12.22-811.8c1.44-48.85,44.27-66.41,70.23-65.37l1457.54-39.1c13.95-.37,27.44,5,37.32,14.86,9.88,9.86,15.32,23.34,14.97,37.3l-21.68,864.13Z"/><g><path class="hf" d="M471.31,1021.53c-1.08,0-1.96-.87-1.98-1.95l-.97-65.83c-.02-1.09,.86-1.99,1.95-2.01,1.06,.02,1.99,.86,2.01,1.95l.97,65.83c.02,1.09-.86,1.99-1.95,2.01h-.03Z"/><path class="hf" d="M468.94,860.19c-1.08,0-1.96-.87-1.98-1.95l-3.7-252.15c.08-16.77,5.24-30.17,15.35-39.86,18.41-17.64,47.22-16.74,48.45-16.71l465.47-12.49h.05c1.07,0,1.95,.85,1.97,1.92,.03,1.09-.83,2-1.92,2.03l-465.58,12.49c-1.29-.06-28.49-.89-45.71,15.61-9.31,8.92-14.06,21.36-14.13,36.99l3.7,252.11c.02,1.09-.86,1.99-1.95,2.01h-.03Z"/></g><g class="hi"><path class="hf" d="M520.91,1364.17c1.56-67.1,.98-661.25-2.87-712.57-3.85-51.31,76.07-60.94,198.77-66.71,122.7-5.78,1157.96-28.64,1184.61-30.8,59.92-4.86,72.32,84.7,66.32,279.12-4.5,146.06-11.97,386.68-15.4,497.34-1.02,32.95-27.95,59.09-60.92,59.18-249.13,.68-1203.95,3.42-1267.51,5.31-73.15,2.18-103.62-4.26-103-30.87Z"/></g></g><rect class="dp" x="321.43" y="1432.6" width="1834.58" height="78.57" rx="7.51" ry="7.51"/><g><rect class="hf" x="633.38" y="1134.93" width="62.87" height="272.04"/><rect class="hf" x="738.43" y="1228.42" width="62.87" height="178.55"/><rect class="hf" x="843.47" y="997.35" width="62.87" height="409.62"/><rect class="hf" x="948.52" y="1308.56" width="62.87" height="98.41"/><rect class="hf" x="1053.56" y="1052.11" width="62.87" height="354.85"/><rect class="hf" x="1158.61" y="1113.55" width="62.87" height="293.41"/><rect class="hf" x="1263.65" y="1180.34" width="62.87" height="226.63"/><rect class="hf" x="1368.7" y="914.54" width="62.87" height="492.43"/><rect class="hf" x="1473.74" y="966.63" width="62.87" height="440.34"/><rect class="hf" x="1578.79" y="1045.44" width="62.87" height="361.53"/><rect class="hf" x="1683.83" y="1317.69" width="62.87" height="89.27"/><rect class="hf" x="1788.88" y="1144.28" width="62.87" height="262.69"/></g></g><g><path class="ds" d="M1608.85,1508.04c2.29,0,4.14-1.85,4.14-4.14v-494.83c0-2.29-1.85-4.14-4.14-4.14s-4.14,1.85-4.14,4.14v494.83c0,2.29,1.85,4.14,4.14,4.14Z"/><path class="dr" d="M1721.04,1508.04c2.29,0,4.14-1.85,4.14-4.14v-494.83c0-2.29-1.85-4.14-4.14-4.14s-4.14,1.85-4.14,4.14v494.83c0,2.29,1.85,4.14,4.14,4.14Z"/><path class="du" d="M1996.67,1511.18c.54,0,1.09-.11,1.62-.33,2.1-.89,3.08-3.32,2.19-5.43l-211.7-497.97c-.89-2.1-3.33-3.08-5.43-2.19-2.1,.89-3.08,3.32-2.19,5.43l211.7,497.97c.67,1.58,2.2,2.52,3.81,2.52Z"/><path class="dt" d="M1865.9,1511.18c.54,0,1.09-.11,1.62-.33,2.1-.89,3.08-3.32,2.19-5.43l-211.7-497.97c-.9-2.1-3.33-3.08-5.43-2.19-2.1,.89-3.08,3.32-2.19,5.43l211.7,497.97c.67,1.58,2.2,2.52,3.81,2.52Z"/><rect class="dv" x="1596.59" y="1001.95" width="205.59" height="11.67" rx="2.81" ry="2.81" transform="translate(3398.77 2015.57) rotate(180)"/><path class="dl" d="M1686.18,1089.35h131.15c2.29,0,4.14-1.85,4.14-4.14s-1.85-4.14-4.14-4.14h-131.15c-2.29,0-4.14,1.85-4.14,4.14s1.85,4.14,4.14,4.14Z"/><rect class="dk" x="1726.43" y="1175.25" width="131.15" height="8.28"/><rect class="dn" x="1765.38" y="1269.43" width="131.15" height="8.28"/><path class="do" d="M1806.24,1371.88h131.15c2.29,0,4.14-1.85,4.14-4.14s-1.85-4.14-4.14-4.14h-131.15c-2.29,0-4.14,1.85-4.14,4.14s1.85,4.14,4.14,4.14Z"/><path class="dm" d="M1845.74,1466.06h131.15c2.29,0,4.14-1.85,4.14-4.14s-1.85-4.14-4.14-4.14h-131.15c-2.29,0-4.14,1.85-4.14,4.14s1.85,4.14,4.14,4.14Z"/></g><g><g class="hj"><path class="de" d="M821.63,878.93c-2.14,0-4.11-1.4-4.74-3.55-.75-2.57-1.47-5.15-2.16-7.74-.7-2.64,.88-5.34,3.52-6.04,2.64-.69,5.34,.88,6.04,3.52,.66,2.51,1.35,5,2.08,7.48,.77,2.62-.73,5.36-3.35,6.13-.46,.14-.93,.2-1.39,.2Z"/><path class="dd" d="M814.17,846.52c-2.37,0-4.46-1.71-4.87-4.12-.88-5.2-1.62-10.49-2.21-15.73-.3-2.71,1.65-5.16,4.36-5.46,2.72-.31,5.16,1.65,5.46,4.36,.57,5.06,1.28,10.17,2.13,15.19,.45,2.69-1.36,5.24-4.05,5.69-.28,.05-.55,.07-.83,.07Zm-3.85-40.78c-2.68,0-4.88-2.14-4.94-4.83-.05-2.11-.07-4.22-.07-6.34,0-3.17,.05-6.38,.16-9.54,.09-2.73,2.37-4.86,5.1-4.78,2.73,.09,4.87,2.37,4.78,5.1-.1,3.06-.15,6.16-.15,9.22,0,2.05,.02,4.09,.07,6.13,.06,2.73-2.1,4.99-4.83,5.05-.04,0-.07,0-.11,0Zm2.04-40.9c-.2,0-.4-.01-.6-.04-2.71-.33-4.64-2.79-4.31-5.5,.64-5.24,1.43-10.52,2.35-15.71,.48-2.69,3.04-4.47,5.73-4,2.69,.48,4.48,3.04,4,5.73-.89,5.01-1.65,10.11-2.27,15.17-.31,2.51-2.44,4.35-4.9,4.35Zm7.85-40.19c-.43,0-.86-.06-1.3-.18-2.63-.71-4.19-3.43-3.47-6.06,1.38-5.08,2.93-10.2,4.59-15.21,.86-2.59,3.66-3.99,6.25-3.13,2.59,.86,3.99,3.66,3.13,6.25-1.61,4.83-3.1,9.77-4.43,14.68-.6,2.2-2.59,3.65-4.77,3.65Zm13.59-38.63c-.66,0-1.33-.13-1.97-.41-2.5-1.09-3.65-4-2.55-6.51,2.11-4.84,4.39-9.68,6.76-14.4,1.23-2.44,4.2-3.41,6.64-2.19,2.44,1.23,3.42,4.2,2.19,6.64-2.3,4.56-4.49,9.23-6.53,13.9-.81,1.86-2.63,2.97-4.53,2.97Zm19.08-36.27c-.89,0-1.79-.24-2.61-.75-2.32-1.44-3.03-4.49-1.58-6.81,2.79-4.47,5.74-8.94,8.78-13.26,1.57-2.23,4.65-2.77,6.88-1.2,2.23,1.57,2.77,4.65,1.2,6.89-2.93,4.18-5.79,8.48-8.48,12.8-.94,1.5-2.55,2.33-4.2,2.33Zm24.12-33.12c-1.13,0-2.26-.38-3.19-1.17-2.08-1.76-2.34-4.88-.58-6.96,3.41-4.03,6.97-8.02,10.59-11.85,1.87-1.98,5-2.07,6.98-.2s2.07,5,.2,6.99c-3.49,3.7-6.93,7.55-10.23,11.44-.98,1.16-2.37,1.75-3.78,1.75Zm28.64-29.3c-1.37,0-2.72-.56-3.7-1.67-1.81-2.04-1.62-5.17,.42-6.97,3.94-3.49,8.04-6.92,12.17-10.2,2.14-1.7,5.25-1.34,6.94,.8,1.69,2.14,1.33,5.25-.8,6.94-4,3.17-7.95,6.48-11.76,9.85-.94,.83-2.11,1.24-3.27,1.24Zm32.54-24.88c-1.61,0-3.19-.78-4.14-2.23-1.5-2.28-.86-5.35,1.42-6.84,4.42-2.9,8.96-5.7,13.51-8.34,2.36-1.37,5.38-.56,6.75,1.79,1.37,2.36,.57,5.38-1.79,6.75-4.39,2.55-8.78,5.26-13.04,8.06-.84,.55-1.78,.81-2.71,.81Zm288.03-13.23c-.78,0-1.58-.19-2.32-.58-4.48-2.39-9.1-4.68-13.74-6.83-2.48-1.15-3.55-4.08-2.41-6.56,1.15-2.47,4.09-3.55,6.56-2.41,4.8,2.22,9.59,4.6,14.23,7.08,2.41,1.28,3.32,4.28,2.04,6.68-.89,1.67-2.6,2.62-4.37,2.62Zm-252.27-6.7c-1.86,0-3.64-1.06-4.48-2.86-1.15-2.47-.08-5.41,2.39-6.57,4.79-2.23,9.68-4.35,14.56-6.31,2.53-1.01,5.41,.22,6.42,2.75,1.01,2.53-.22,5.41-2.75,6.43-4.71,1.88-9.44,3.93-14.06,6.09-.68,.31-1.39,.47-2.09,.47Zm214.81-9.86c-.55,0-1.11-.09-1.66-.29-4.78-1.71-9.69-3.31-14.58-4.76-2.62-.77-4.11-3.52-3.34-6.14,.77-2.62,3.52-4.12,6.14-3.34,5.07,1.5,10.16,3.16,15.11,4.93,2.57,.92,3.91,3.75,2.99,6.32-.72,2.02-2.62,3.28-4.65,3.28Zm-176.56-4.69c-2.13,0-4.09-1.38-4.73-3.53-.78-2.61,.7-5.37,3.32-6.15,5.06-1.52,10.22-2.91,15.34-4.13,2.65-.64,5.32,1,5.96,3.66,.64,2.65-1,5.32-3.65,5.96-4.94,1.18-9.92,2.52-14.81,3.99-.47,.14-.95,.21-1.42,.21Zm137.09-6.25c-.32,0-.65-.03-.97-.1-4.98-1-10.07-1.87-15.13-2.6-2.7-.39-4.58-2.89-4.19-5.59s2.88-4.58,5.6-4.19c5.24,.75,10.51,1.66,15.66,2.69,2.68,.53,4.41,3.14,3.88,5.82-.47,2.35-2.53,3.97-4.84,3.97Zm-97.11-2.6c-2.41,0-4.52-1.77-4.88-4.23-.39-2.7,1.47-5.21,4.18-5.6,5.23-.76,10.54-1.39,15.78-1.86,2.72-.24,5.12,1.76,5.36,4.48,.24,2.72-1.76,5.12-4.48,5.36-5.06,.45-10.19,1.05-15.23,1.79-.24,.03-.48,.05-.72,.05Zm56.46-2.53c-.09,0-.18,0-.27,0-4.93-.27-9.9-.41-14.81-.42h-.53c-2.73,0-4.94-2.21-4.94-4.94,0-2.34,1.62-4.3,3.8-4.81l.47-.13h.69c5.25,0,10.58,.14,15.86,.43,2.72,.15,4.81,2.48,4.67,5.2-.14,2.63-2.32,4.67-4.93,4.67Z"/><path class="df" d="M1254.72,566.66c-.97,0-1.96-.29-2.82-.89-2.12-1.48-4.27-2.92-6.43-4.34-2.28-1.5-2.92-4.56-1.43-6.84,1.5-2.28,4.56-2.92,6.84-1.43,2.25,1.47,4.47,2.97,6.67,4.5,2.24,1.56,2.79,4.64,1.23,6.88-.96,1.38-2.5,2.12-4.06,2.12Z"/></g><g class="hj"><path class="dy" d="M1372.19,750.51c-2.36,0-4.44-1.69-4.86-4.09-.44-2.55-.92-5.1-1.44-7.63-.54-2.67,1.19-5.28,3.86-5.83,2.68-.55,5.28,1.19,5.83,3.86,.53,2.62,1.03,5.26,1.49,7.9,.47,2.69-1.33,5.25-4.02,5.72-.29,.05-.57,.07-.85,.07Z"/><path class="dx" d="M1102.89,1082.12c-2.66,0-4.85-2.11-4.94-4.78-.09-2.73,2.05-5.01,4.78-5.1,5.01-.16,10.08-.47,15.07-.9,2.72-.25,5.11,1.77,5.35,4.49,.24,2.72-1.78,5.12-4.49,5.35-5.17,.45-10.42,.76-15.6,.93-.06,0-.11,0-.16,0Zm-24.96-.28c-.09,0-.18,0-.27,0-1.41-.08-2.82-.16-4.23-.26-3.79-.26-7.61-.6-11.36-1.01-2.71-.3-4.67-2.73-4.38-5.45,.29-2.71,2.72-4.69,5.45-4.38,3.62,.39,7.31,.72,10.98,.97,1.36,.09,2.72,.18,4.08,.25,2.73,.15,4.81,2.48,4.67,5.2-.14,2.63-2.32,4.67-4.93,4.67Zm65.04-3.91c-2.35,0-4.43-1.68-4.86-4.08-.48-2.69,1.32-5.25,4-5.73,4.94-.88,9.92-1.9,14.78-3.04,2.66-.63,5.32,1.03,5.94,3.68,.62,2.66-1.03,5.32-3.68,5.94-5.04,1.18-10.19,2.24-15.31,3.15-.29,.05-.58,.08-.87,.08Zm-105.04-1.12c-.32,0-.64-.03-.97-.09-5.11-1.01-10.24-2.18-15.25-3.46-2.64-.68-4.24-3.37-3.57-6.01,.67-2.64,3.37-4.25,6.01-3.56,4.84,1.24,9.8,2.36,14.73,3.34,2.68,.53,4.42,3.13,3.89,5.81-.47,2.35-2.53,3.98-4.84,3.98Zm144.11-8.75c-2.07,0-4-1.32-4.69-3.39-.86-2.59,.55-5.39,3.14-6.24,4.75-1.57,9.52-3.29,14.17-5.12,2.54-1,5.41,.25,6.4,2.8,1,2.54-.26,5.41-2.8,6.41-4.82,1.89-9.76,3.68-14.68,5.3-.52,.17-1.04,.25-1.55,.25Zm-183.01-1.9c-.55,0-1.1-.09-1.64-.28-4.9-1.73-9.82-3.61-14.61-5.6-2.52-1.05-3.71-3.94-2.67-6.46,1.05-2.52,3.94-3.71,6.46-2.67,4.62,1.92,9.36,3.74,14.1,5.41,2.57,.91,3.93,3.73,3.02,6.3-.72,2.03-2.62,3.3-4.66,3.3Zm220.25-13.44c-1.82,0-3.56-1-4.43-2.74-1.22-2.44-.22-5.41,2.22-6.63,4.49-2.24,8.97-4.62,13.32-7.09,2.38-1.35,5.39-.51,6.74,1.86,1.35,2.37,.51,5.39-1.86,6.74-4.5,2.56-9.14,5.02-13.78,7.34-.71,.35-1.46,.52-2.2,.52Zm-257.21-2.65c-.77,0-1.56-.18-2.29-.57-4.59-2.4-9.18-4.97-13.65-7.63-2.35-1.4-3.11-4.43-1.72-6.77,1.4-2.35,4.43-3.11,6.77-1.72,4.32,2.57,8.75,5.05,13.18,7.37,2.42,1.27,3.35,4.25,2.08,6.67-.88,1.69-2.6,2.65-4.38,2.65Zm291.91-17.83c-1.57,0-3.11-.75-4.07-2.13-1.55-2.25-.99-5.32,1.26-6.88,4.12-2.85,8.22-5.84,12.18-8.91,2.16-1.67,5.26-1.27,6.93,.89,1.67,2.16,1.27,5.26-.89,6.93-4.1,3.17-8.35,6.28-12.61,9.22-.86,.59-1.83,.87-2.8,.87Zm31.46-25.19c-1.33,0-2.66-.53-3.63-1.59-1.85-2.01-1.73-5.13,.27-6.98,3.68-3.4,7.31-6.95,10.81-10.55,1.9-1.96,5.03-2,6.99-.1,1.96,1.9,2,5.03,.1,6.99-3.62,3.73-7.39,7.4-11.19,10.92-.95,.88-2.15,1.31-3.35,1.31Zm27.59-29.38c-1.1,0-2.2-.36-3.12-1.11-2.12-1.72-2.44-4.84-.72-6.95,3.17-3.89,6.27-7.92,9.21-11.98,1.61-2.2,4.7-2.69,6.9-1.09,2.21,1.6,2.7,4.69,1.09,6.9-3.05,4.19-6.26,8.37-9.54,12.4-.98,1.2-2.4,1.82-3.84,1.82Zm23.15-33.01c-.87,0-1.74-.23-2.54-.7-2.34-1.4-3.1-4.44-1.69-6.78,2.58-4.3,5.08-8.73,7.42-13.17,1.28-2.41,4.27-3.34,6.68-2.06,2.41,1.27,3.34,4.26,2.06,6.68-2.42,4.59-5.01,9.18-7.69,13.64-.93,1.54-2.56,2.4-4.24,2.4Zm18.22-35.98c-.64,0-1.28-.13-1.91-.39-2.52-1.06-3.7-3.95-2.65-6.47,1.94-4.62,3.77-9.35,5.45-14.07,.92-2.57,3.75-3.92,6.31-3,2.57,.92,3.91,3.74,3,6.31-1.74,4.89-3.64,9.79-5.65,14.58-.79,1.89-2.63,3.03-4.56,3.03Zm12.88-38.19c-.41,0-.83-.05-1.24-.16-2.64-.69-4.23-3.38-3.54-6.02,1.26-4.85,2.39-9.79,3.39-14.71,.54-2.68,3.14-4.42,5.82-3.87,2.68,.54,4.41,3.14,3.87,5.82-1.03,5.09-2.21,10.21-3.51,15.23-.58,2.23-2.58,3.7-4.78,3.7Zm7.3-39.63c-.18,0-.37,0-.56-.03-2.71-.3-4.67-2.75-4.36-5.46,.44-3.95,.8-7.96,1.08-11.93,.07-1.03,.14-2.08,.2-3.12,.16-2.72,2.5-4.81,5.22-4.64,2.72,.16,4.8,2.5,4.64,5.22-.06,1.07-.13,2.14-.2,3.21-.28,4.12-.66,8.27-1.12,12.36-.28,2.52-2.42,4.39-4.91,4.39Zm1.65-40.27c-2.66,0-4.86-2.12-4.94-4.8-.15-5.01-.43-10.08-.85-15.07-.23-2.72,1.79-5.11,4.51-5.34,2.69-.24,5.11,1.79,5.34,4.51,.43,5.17,.73,10.43,.88,15.61,.08,2.73-2.07,5-4.8,5.08-.05,0-.1,0-.15,0Z"/><path class="e`" d="M927.62,1028.75c-1,0-2.02-.31-2.89-.94-2.17-1.57-4.32-3.17-6.45-4.8-2.17-1.66-2.58-4.76-.92-6.93,1.66-2.17,4.76-2.58,6.93-.92,2.05,1.57,4.13,3.12,6.23,4.64,2.21,1.6,2.71,4.69,1.11,6.9-.97,1.34-2.48,2.05-4.01,2.05Z"/></g><g><path class="el" d="M940.46,948.93c.92,1.12,2.44,1.54,3.8,1.04l38.81-14.27c15.3,11.78,32.59,21.21,51.38,27.67l9.46,40.22c.33,1.41,1.52,2.46,2.96,2.6l49.34,5c1.44,.15,2.82-.64,3.43-1.95l17.34-37.51c19.71-2.56,38.53-8.33,55.88-16.8l35.16,21.76c1.23,.76,2.81,.66,3.94-.26l38.43-31.36c1.12-.92,1.54-2.44,1.04-3.8l-14.27-38.81c11.78-15.3,21.21-32.59,27.67-51.38l40.22-9.47c1.41-.33,2.46-1.52,2.6-2.96l5-49.34c.15-1.44-.64-2.82-1.95-3.43l-37.51-17.34c-2.56-19.71-8.33-38.53-16.8-55.88l21.76-35.16c.76-1.23,.66-2.81-.26-3.94l-31.36-38.43c-.92-1.12-2.44-1.54-3.8-1.04l-38.81,14.27c-15.3-11.78-32.59-21.21-51.38-27.67l-9.46-40.22c-.33-1.41-1.52-2.46-2.96-2.6l-49.34-5c-1.44-.15-2.82,.64-3.43,1.95l-17.34,37.51c-19.71,2.56-38.53,8.33-55.88,16.8l-35.16-21.76c-1.23-.76-2.81-.66-3.94,.26l-38.43,31.36c-1.12,.92-1.54,2.44-1.04,3.8l14.27,38.81c-11.78,15.3-21.21,32.59-27.67,51.38l-40.22,9.46c-1.41,.33-2.46,1.52-2.6,2.96l-5,49.34c-.15,1.44,.64,2.82,1.95,3.43l37.51,17.34c2.56,19.71,8.33,38.53,16.8,55.88l-21.76,35.16c-.76,1.23-.66,2.81,.26,3.94l31.36,38.42Z"/><path class="ea" d="M1093.46,840.03c-23.39,0-43.94-17.18-47.45-41-3.86-26.18,14.3-50.62,40.48-54.48,26.19-3.85,50.62,14.3,54.48,40.48,3.86,26.18-14.3,50.62-40.48,54.48-2.36,.35-4.71,.52-7.03,.52Zm.06-88.08c-1.94,0-3.9,.14-5.87,.43-21.87,3.22-37.03,23.64-33.81,45.5,3.22,21.87,23.63,37.02,45.5,33.81,10.59-1.56,19.94-7.15,26.33-15.75,6.39-8.59,9.04-19.16,7.48-29.75-2.93-19.89-20.09-34.24-39.63-34.24Z"/><path class="ec" d="M1094.34,912.96c-4.09,0-8.2-.2-12.35-.63h0c-8.63-.87-17.16-2.66-25.35-5.31-.84-.27-1.37-1.04-1.37-1.88,0-.2,.03-.41,.1-.61,.34-1.04,1.45-1.61,2.49-1.27,7.92,2.57,16.18,4.3,24.53,5.14,64.56,6.56,122.42-40.67,128.96-105.24,.41-4.05,.61-8.08,.61-12.1,0-27-9.22-52.97-26.52-74.18-19.88-24.36-48.05-39.52-79.33-42.68-64.57-6.56-122.42,40.67-128.96,105.23-.4,3.98-.6,7.97-.6,11.94,0,17.23,3.78,34.26,11.11,49.87,.13,.27,.19,.56,.19,.84,0,.74-.42,1.45-1.14,1.79-.99,.46-2.16,.04-2.63-.95-7.58-16.13-11.48-33.74-11.48-51.54,0-4.11,.21-8.23,.62-12.34,6.76-66.73,66.57-115.55,133.29-108.77,32.33,3.28,61.45,18.94,81.99,44.12,17.89,21.92,27.41,48.76,27.41,76.67,0,4.15-.21,8.32-.63,12.5-6.34,62.59-59.33,109.4-120.94,109.4Z"/></g></g><g><path class="et" d="M1386.3,546.28l21.04-9.69c9.07,5.9,19.14,10.4,29.92,13.17l7.07,22.04c.25,.77,.96,1.3,1.77,1.32l27.78,.6c.81,.02,1.55-.48,1.83-1.24l8.02-21.72c10.89-2.3,21.15-6.36,30.47-11.87l20.6,10.59c.72,.37,1.6,.24,2.19-.32l20.07-19.22c.59-.56,.75-1.43,.41-2.17l-9.69-21.04c5.9-9.07,10.4-19.14,13.17-29.92l22.05-7.07c.77-.25,1.3-.96,1.32-1.77l.6-27.78c.02-.81-.48-1.55-1.24-1.83l-21.72-8.02c-2.3-10.89-6.36-21.15-11.87-30.47l10.59-20.6c.37-.72,.24-1.6-.32-2.19l-19.22-20.07c-.56-.59-1.43-.75-2.17-.41l-21.04,9.69c-9.07-5.9-19.14-10.4-29.92-13.17l-7.07-22.05c-.25-.77-.96-1.3-1.77-1.32l-27.78-.6c-.81-.02-1.55,.48-1.83,1.24l-8.02,21.72c-10.89,2.3-21.15,6.36-30.47,11.87l-20.6-10.59c-.72-.37-1.6-.24-2.19,.32l-20.07,19.22c-.59,.56-.75,1.43-.41,2.17l9.69,21.04c-5.9,9.07-10.4,19.14-13.17,29.92l-22.05,7.07c-.77,.25-1.3,.96-1.32,1.77l-.6,27.78c-.02,.81,.48,1.55,1.24,1.83l21.72,8.02c2.3,10.89,6.36,21.15,11.87,30.47l-10.59,20.6c-.37,.72-.24,1.6,.32,2.19l19.22,20.07c.56,.59,1.43,.75,2.17,.41Z"/><path class="ef" d="M1462.59,478.11c-4.95,0-9.8-1.38-14.1-4.08-6.03-3.78-10.23-9.68-11.83-16.62-3.29-14.32,5.69-28.65,20.01-31.94,14.32-3.28,28.65,5.69,31.94,20.01,3.29,14.32-5.69,28.65-20.01,31.94h0c-2,.46-4.01,.69-6.01,.69Zm5.57-2.61h0Zm-5.52-46.75c-1.68,0-3.38,.19-5.08,.58-12.2,2.8-19.84,15-17.04,27.2,1.36,5.91,4.93,10.94,10.07,14.16s11.22,4.24,17.13,2.89h0c12.2-2.8,19.84-15,17.04-27.2-2.41-10.5-11.78-17.62-22.12-17.62Z"/><g><g class="hj"><path class="ei" d="M1338.02,538.06c-1.61,0-3.19-.79-4.14-2.23-1.48-2.25-2.92-4.59-4.29-6.94-1.37-2.36-.57-5.38,1.78-6.76,2.36-1.38,5.38-.58,6.76,1.78,1.28,2.2,2.63,4.39,4.02,6.5,1.5,2.28,.86,5.35-1.42,6.84-.83,.55-1.77,.81-2.7,.81Z"/><path class="ek" d="M1323.09,508.57c-2.01,0-3.89-1.23-4.63-3.22-1.85-4.98-3.47-10.12-4.81-15.28-.68-2.64,.9-5.34,3.55-6.02,2.64-.69,5.34,.9,6.02,3.55,1.25,4.83,2.76,9.65,4.5,14.31,.95,2.56-.35,5.4-2.91,6.35-.57,.21-1.15,.31-1.72,.31Zm-8.92-39.62c-2.54,0-4.7-1.94-4.92-4.52-.37-4.35-.56-8.76-.56-13.11,0-.97,0-1.94,.03-2.91,.05-2.73,2.33-4.89,5.04-4.85,2.73,.05,4.9,2.31,4.84,5.04-.02,.9-.03,1.81-.03,2.71,0,4.07,.18,8.2,.53,12.27,.23,2.72-1.78,5.11-4.5,5.35-.14,.01-.29,.02-.43,.02Zm2.11-40.54c-.31,0-.62-.03-.94-.09-2.68-.51-4.44-3.1-3.92-5.78,1-5.23,2.29-10.46,3.84-15.56,.79-2.61,3.55-4.08,6.16-3.3,2.61,.79,4.09,3.55,3.3,6.16-1.44,4.77-2.65,9.67-3.59,14.56-.45,2.37-2.52,4.01-4.85,4.01Zm13.01-38.46c-.74,0-1.49-.17-2.2-.52-2.44-1.22-3.43-4.19-2.22-6.63,2.37-4.76,5.03-9.45,7.89-13.94,1.47-2.3,4.52-2.98,6.82-1.52,2.3,1.47,2.98,4.52,1.52,6.82-2.68,4.21-5.16,8.6-7.38,13.05-.86,1.73-2.61,2.74-4.43,2.74Zm22.89-33.54c-1.18,0-2.37-.42-3.31-1.28-2.02-1.83-2.18-4.95-.35-6.98,3.57-3.95,7.39-7.76,11.34-11.31,2.03-1.82,5.16-1.65,6.98,.37,1.82,2.03,1.66,5.16-.37,6.98-3.7,3.32-7.27,6.88-10.61,10.58-.98,1.08-2.32,1.63-3.67,1.63Zm31.08-26.12c-1.64,0-3.25-.82-4.19-2.31-1.45-2.31-.76-5.36,1.55-6.81,4.52-2.84,9.22-5.47,13.99-7.81,2.45-1.2,5.41-.19,6.61,2.26,1.2,2.45,.19,5.41-2.26,6.62-4.46,2.19-8.86,4.65-13.09,7.31-.82,.51-1.73,.76-2.63,.76Zm36.99-16.71c-2.13,0-4.1-1.39-4.74-3.54-.77-2.62,.72-5.37,3.34-6.14,3.06-.91,6.2-1.73,9.34-2.45,2.08-.48,4.16-.91,6.23-1.3,2.67-.51,5.26,1.26,5.77,3.95,.5,2.68-1.27,5.26-3.95,5.77-1.95,.36-3.89,.77-5.84,1.22-2.94,.68-5.88,1.45-8.75,2.3-.47,.14-.94,.2-1.4,.2Zm55.65-5.6c-.15,0-.29,0-.44-.02-4.97-.44-9.99-.63-14.98-.54-2.76-.05-4.98-2.13-5.03-4.86-.05-2.73,2.13-4.98,4.86-5.03,5.34-.08,10.71,.11,16.02,.58,2.72,.24,4.73,2.64,4.49,5.36-.23,2.57-2.39,4.5-4.92,4.5Z"/><path class="eb" d="M1508.38,314.6c-.5,0-1.02-.08-1.52-.24-2.42-.78-4.88-1.51-7.33-2.16-2.64-.7-4.21-3.41-3.5-6.05,.7-2.64,3.41-4.21,6.05-3.5,2.62,.7,5.25,1.47,7.83,2.31,2.6,.84,4.02,3.63,3.18,6.22-.68,2.09-2.62,3.42-4.7,3.42Z"/></g><g class="hj"><path class="ed" d="M1597.29,392.59c-1.85,0-3.63-1.05-4.47-2.83-1.08-2.29-2.24-4.58-3.45-6.82-1.3-2.4-.4-5.4,2-6.7,2.41-1.29,5.4-.4,6.7,2,1.29,2.39,2.53,4.84,3.69,7.29,1.17,2.47,.11,5.41-2.36,6.58-.68,.32-1.4,.47-2.11,.47Z"/><path class="ee" d="M1457.31,605.3c-.06,0-.12,0-.18,0-5.25-.18-10.53-.64-15.71-1.37-2.7-.38-4.59-2.87-4.21-5.58,.38-2.7,2.87-4.59,5.58-4.21,4.84,.68,9.78,1.11,14.69,1.28,2.73,.09,4.86,2.38,4.77,5.11-.09,2.67-2.29,4.77-4.94,4.77Zm24.74-1.2c-2.44,0-4.56-1.8-4.89-4.29-.36-2.71,1.54-5.19,4.25-5.55,4.5-.6,9.03-1.42,13.46-2.43l1.05-.25c2.66-.64,5.32,1,5.96,3.66,.64,2.65-1,5.32-3.66,5.96l-1.14,.27c-4.72,1.08-9.56,1.96-14.36,2.6-.22,.03-.44,.04-.66,.04Zm38.56-10.45c-1.93,0-3.76-1.14-4.56-3.02-1.06-2.52,.12-5.41,2.63-6.47,4.52-1.9,8.99-4.06,13.28-6.42,2.4-1.31,5.4-.43,6.71,1.96,1.31,2.39,.44,5.4-1.96,6.71-4.59,2.52-9.37,4.82-14.19,6.86-.63,.26-1.28,.39-1.92,.39Zm34.38-20.32c-1.46,0-2.9-.64-3.88-1.88-1.69-2.14-1.33-5.25,.81-6.94,3.83-3.03,7.56-6.31,11.08-9.73,1.95-1.9,5.09-1.86,6.99,.1,1.9,1.96,1.86,5.08-.09,6.99-3.76,3.66-7.74,7.15-11.84,10.4-.91,.72-1.99,1.07-3.06,1.07Zm27.71-28.76c-1.01,0-2.04-.31-2.92-.96-2.2-1.61-2.68-4.71-1.06-6.91,2.9-3.95,5.62-8.1,8.11-12.33,1.38-2.35,4.41-3.14,6.76-1.76,2.35,1.38,3.14,4.41,1.76,6.76-2.65,4.52-5.57,8.95-8.66,13.16-.97,1.32-2.47,2.02-3.99,2.02Zm19.13-35.07c-.59,0-1.18-.11-1.76-.33-2.55-.97-3.82-3.83-2.85-6.38,1.75-4.58,3.29-9.3,4.56-14.03,.71-2.64,3.42-4.19,6.06-3.49,2.64,.71,4.2,3.42,3.49,6.06-1.36,5.05-3,10.1-4.87,14.99-.75,1.97-2.63,3.18-4.62,3.18Zm9.14-38.89c-.16,0-.32,0-.48-.02-2.72-.26-4.71-2.67-4.45-5.39,.43-4.51,.65-9.08,.65-13.61v-1.14c-.03-2.73,2.17-4.96,4.9-4.98h.04c2.71,0,4.92,2.19,4.94,4.91v1.21c0,4.83-.23,9.73-.69,14.54-.24,2.56-2.4,4.47-4.91,4.47Zm-1.61-39.92c-2.35,0-4.44-1.69-4.86-4.08-.43-2.45-.94-4.93-1.49-7.37-.54-2.35-1.14-4.71-1.8-7.02-.74-2.63,.79-5.36,3.41-6.1,2.63-.73,5.36,.79,6.1,3.41,.7,2.47,1.34,4.99,1.92,7.5,.6,2.6,1.13,5.25,1.59,7.87,.47,2.69-1.32,5.25-4.01,5.72-.29,.05-.58,.08-.86,.08Z"/><path class="eh" d="M1417.85,598.49c-.49,0-1-.08-1.49-.23-2.57-.81-5.16-1.71-7.71-2.66-2.56-.96-3.85-3.8-2.89-6.36,.96-2.56,3.81-3.85,6.36-2.89,2.39,.89,4.82,1.73,7.23,2.49,2.6,.82,4.04,3.6,3.22,6.2-.67,2.11-2.61,3.45-4.71,3.45Z"/></g></g><path class="ey" d="M1462.68,520.47c-.51,0-1.02,0-1.53-.02h0c-1.16-.03-2.32-.08-3.48-.16-3.24-.23-6.45-.69-9.6-1.36-.05,0-.09-.02-.14-.03-.45-.1-.91-.2-1.36-.31-.91-.22-1.52-1.03-1.52-1.92,0-.15,.02-.31,.05-.46,.25-1.06,1.32-1.72,2.38-1.47,4.47,1.07,9.1,1.66,13.75,1.76,17.41,.44,33.86-6.04,46.42-18.06,12.55-12.02,19.67-28.21,20.05-45.59,.01-.47,.02-.95,.02-1.41,0-35.24-28.27-64.28-63.67-65.05-35.89-.82-65.69,27.78-66.47,63.65-.01,.47-.02,.94-.02,1.42,0,11.31,2.93,22.41,8.51,32.19,.18,.31,.26,.64,.26,.98,0,.69-.36,1.36-1,1.72-.95,.54-2.16,.21-2.7-.74-5.92-10.38-9.03-22.15-9.03-34.15,0-.5,0-1,.02-1.5,.81-37.55,31.62-67.54,68.99-67.54,.5,0,1,0,1.51,.02,37.55,.81,67.54,31.62,67.54,69,0,.5,0,1-.02,1.5-.4,18.43-7.95,35.61-21.27,48.36-12.95,12.4-29.83,19.17-47.7,19.17Z"/></g><g><g class="hj"><path class="ep" d="M627.8,1001.66c-.85,0-1.64-.56-1.9-1.42-.47-1.6-.91-3.22-1.32-4.84-.27-1.06,.38-2.13,1.44-2.4,1.06-.26,2.13,.38,2.4,1.44,.39,1.57,.82,3.14,1.27,4.69,.31,1.05-.29,2.15-1.34,2.45-.19,.06-.37,.08-.56,.08Z"/><path class="es" d="M624.46,987.03c-.95,0-1.79-.69-1.95-1.66-.55-3.35-.97-6.77-1.24-10.16-.09-1.09,.72-2.04,1.81-2.13,1.09-.08,2.04,.72,2.13,1.81,.26,3.28,.66,6.59,1.2,9.84,.18,1.08-.55,2.09-1.63,2.27-.11,.02-.22,.03-.32,.03Zm-1.6-20.06h0c-1.09,0-1.97-.89-1.97-1.98,0-2.8,.11-5.64,.3-8.45,.04-.59,.09-1.18,.13-1.77,.09-1.09,1.04-1.88,2.13-1.81,1.09,.09,1.9,1.04,1.81,2.13-.05,.57-.09,1.15-.13,1.72-.19,2.72-.29,5.47-.29,8.18,0,1.09-.89,1.97-1.98,1.97Zm1.67-20.05c-.11,0-.22,0-.33-.03-1.08-.18-1.8-1.2-1.63-2.27,.55-3.35,1.26-6.72,2.08-10.02,.26-1.06,1.34-1.7,2.4-1.43,1.06,.27,1.7,1.34,1.44,2.4-.8,3.19-1.48,6.45-2.02,9.7-.16,.97-1,1.65-1.95,1.65Zm4.91-19.51c-.21,0-.43-.03-.64-.11-1.03-.35-1.59-1.48-1.23-2.51,1.1-3.22,2.34-6.43,3.7-9.54,.44-1,1.6-1.46,2.6-1.02,1,.44,1.46,1.6,1.02,2.6-1.32,3.01-2.52,6.12-3.59,9.23-.28,.82-1.05,1.34-1.87,1.34Zm8.05-18.44c-.32,0-.64-.08-.94-.24-.96-.52-1.32-1.72-.8-2.68,1.62-3,3.37-5.96,5.23-8.8,.6-.91,1.82-1.17,2.74-.58,.91,.6,1.17,1.82,.58,2.74-1.79,2.75-3.49,5.62-5.06,8.52-.36,.66-1.04,1.04-1.74,1.04Zm10.98-16.88c-.42,0-.85-.14-1.21-.41-.86-.67-1.02-1.91-.35-2.77,2.08-2.68,4.3-5.32,6.59-7.83,.73-.81,1.99-.86,2.79-.13,.81,.74,.86,1.99,.12,2.79-2.22,2.43-4.37,4.98-6.38,7.58-.39,.5-.97,.77-1.56,.77Zm13.59-14.85c-.53,0-1.06-.21-1.45-.63-.74-.8-.7-2.05,.1-2.79,2.49-2.31,5.11-4.55,7.78-6.65,.86-.67,2.1-.53,2.78,.33,.67,.86,.53,2.1-.33,2.78-2.59,2.03-5.12,4.2-7.53,6.44-.38,.35-.86,.53-1.34,.53Zm15.82-12.44c-.64,0-1.27-.31-1.65-.89-.6-.91-.35-2.14,.56-2.74,2.84-1.88,5.79-3.66,8.76-5.29,.96-.53,2.16-.17,2.69,.78,.53,.96,.18,2.16-.78,2.68-2.88,1.58-5.73,3.31-8.48,5.13-.34,.22-.72,.33-1.09,.33Zm124.66-6.31c-.31,0-.62-.07-.92-.23-2.91-1.53-5.92-2.96-8.95-4.24-1-.43-1.47-1.59-1.05-2.59s1.59-1.47,2.59-1.05c3.13,1.33,6.24,2.8,9.25,4.39,.97,.51,1.34,1.7,.83,2.67-.35,.67-1.04,1.06-1.75,1.06Zm-107.03-3.39c-.76,0-1.48-.43-1.8-1.17-.45-1,0-2.17,1-2.61,3.1-1.39,6.3-2.66,9.5-3.79,1.03-.37,2.16,.18,2.52,1.21,.36,1.03-.18,2.16-1.21,2.52-3.1,1.09-6.19,2.32-9.2,3.67-.26,.12-.54,.17-.81,.17Zm88.5-4.47c-.2,0-.41-.03-.62-.1-3.12-1.03-6.33-1.94-9.53-2.71-1.06-.25-1.72-1.32-1.46-2.38s1.33-1.71,2.38-1.46c3.31,.8,6.62,1.74,9.85,2.8,1.04,.34,1.6,1.46,1.26,2.5-.27,.83-1.05,1.36-1.88,1.36Zm-69.53-2.21c-.88,0-1.68-.59-1.91-1.48-.28-1.06,.36-2.14,1.41-2.41,3.3-.86,6.66-1.59,10-2.18,1.08-.18,2.1,.54,2.29,1.61,.19,1.08-.53,2.1-1.61,2.29-3.23,.56-6.49,1.27-9.68,2.11-.17,.04-.34,.06-.5,.06Zm49.96-2.5c-.1,0-.2,0-.31-.02-3.24-.5-6.55-.88-9.85-1.12-1.09-.08-1.91-1.03-1.83-2.11,.08-1.09,1.04-1.9,2.11-1.83,3.41,.25,6.83,.64,10.17,1.15,1.08,.17,1.82,1.18,1.65,2.26-.15,.98-.99,1.67-1.95,1.67Zm-30.14-.97c-1.01,0-1.87-.77-1.97-1.8-.1-1.09,.7-2.05,1.79-2.15,3.39-.31,6.83-.48,10.22-.5h.02c1.08,0,1.97,.87,1.98,1.96,0,1.09-.87,1.98-1.96,1.99-3.28,.03-6.61,.19-9.89,.49-.06,0-.12,0-.18,0Z"/><path class="eu" d="M815.48,866.33c-.39,0-.78-.11-1.13-.35-1.33-.92-2.68-1.82-4.05-2.69-.92-.59-1.19-1.81-.6-2.73,.59-.92,1.81-1.19,2.73-.6,1.41,.9,2.8,1.83,4.17,2.78,.9,.62,1.12,1.86,.5,2.75-.38,.55-1,.85-1.63,.85Z"/></g><g class="hj"><path class="eg" d="M866.64,947.5c-.95,0-1.79-.69-1.95-1.66-.26-1.61-.55-3.2-.87-4.78-.22-1.07,.47-2.11,1.54-2.33,1.07-.22,2.11,.47,2.33,1.55,.33,1.64,.63,3.28,.9,4.94,.17,1.08-.56,2.09-1.64,2.27-.11,.02-.21,.03-.32,.03Z"/><path class="ej" d="M745.65,1089.78c-1.95,0-3.93-.05-5.88-.14-1.09-.05-1.93-.98-1.88-2.07,.05-1.09,.99-1.91,2.07-1.88,3.24,.15,6.53,.17,9.75,.07,1.09-.12,2,.82,2.04,1.91,.04,1.09-.82,2.01-1.91,2.04-1.39,.05-2.79,.07-4.19,.07Zm14-.8c-.99,0-1.85-.74-1.96-1.75-.12-1.08,.66-2.06,1.74-2.19,3.21-.37,6.45-.87,9.63-1.5,1.07-.23,2.11,.48,2.32,1.55,.21,1.07-.48,2.11-1.55,2.32-3.29,.65-6.64,1.18-9.95,1.55-.08,0-.15,.01-.23,.01Zm-29.66-.19c-.08,0-.17,0-.25-.02-3.33-.42-6.67-.98-9.93-1.67-1.07-.22-1.75-1.27-1.53-2.34,.22-1.07,1.27-1.75,2.34-1.53,3.16,.66,6.4,1.2,9.62,1.61,1.08,.14,1.85,1.13,1.71,2.21-.13,1-.98,1.73-1.96,1.73Zm49.09-3.66c-.86,0-1.65-.57-1.9-1.44-.3-1.05,.31-2.14,1.36-2.44,3.12-.89,6.23-1.91,9.26-3.04,1.02-.38,2.16,.14,2.54,1.16,.38,1.02-.14,2.16-1.16,2.54-3.13,1.17-6.34,2.23-9.56,3.14-.18,.05-.36,.08-.54,.08Zm-68.47-.41c-.19,0-.38-.03-.56-.08-3.22-.95-6.42-2.05-9.53-3.25-1.02-.39-1.52-1.54-1.13-2.56,.39-1.02,1.54-1.52,2.56-1.13,3.01,1.17,6.12,2.22,9.23,3.15,1.05,.31,1.64,1.41,1.33,2.46-.25,.86-1.04,1.41-1.89,1.41Zm87.01-6.54c-.74,0-1.45-.42-1.79-1.14-.46-.99-.04-2.16,.95-2.63,2.92-1.37,5.83-2.88,8.65-4.5,.95-.54,2.16-.21,2.7,.73,.54,.95,.21,2.15-.73,2.7-2.91,1.67-5.91,3.23-8.93,4.65-.27,.13-.56,.19-.84,.19Zm-105.49-.61c-.29,0-.58-.06-.86-.2-3-1.45-5.99-3.05-8.88-4.75-.94-.55-1.26-1.77-.7-2.71,.55-.94,1.76-1.26,2.71-.7,2.8,1.65,5.7,3.2,8.6,4.6,.98,.47,1.39,1.66,.92,2.64-.34,.7-1.05,1.12-1.78,1.12Zm122.67-9.23c-.63,0-1.25-.3-1.63-.86-.62-.9-.39-2.13,.51-2.75,2.67-1.83,5.3-3.79,7.82-5.83,.85-.69,2.09-.56,2.78,.29,.69,.85,.56,2.09-.29,2.78-2.6,2.1-5.31,4.13-8.07,6.02-.34,.23-.73,.35-1.12,.35Zm15.38-12.47c-.52,0-1.04-.21-1.43-.61-.75-.79-.72-2.04,.07-2.8,2.34-2.22,4.62-4.58,6.78-7,.73-.81,1.98-.88,2.79-.16,.81,.73,.89,1.98,.16,2.79-2.23,2.5-4.59,4.94-7.01,7.23-.38,.36-.87,.54-1.36,.54Zm13.19-14.77c-.42,0-.83-.13-1.19-.4-.87-.66-1.04-1.9-.38-2.77,1.96-2.58,3.83-5.27,5.57-8,.59-.92,1.81-1.19,2.73-.6,.92,.59,1.19,1.81,.6,2.73-1.8,2.82-3.73,5.6-5.75,8.27-.39,.51-.98,.78-1.58,.78Zm10.65-16.7c-.31,0-.63-.07-.92-.23-.97-.51-1.33-1.71-.82-2.67,1.51-2.85,2.93-5.82,4.21-8.8,.43-1,1.59-1.47,2.6-1.04,1,.43,1.47,1.59,1.04,2.6-1.32,3.08-2.78,6.14-4.34,9.09-.35,.67-1.04,1.05-1.75,1.05Zm7.81-18.21c-.21,0-.42-.03-.63-.1-1.03-.35-1.59-1.47-1.25-2.5,1.03-3.06,1.94-6.21,2.72-9.36,.26-1.06,1.33-1.7,2.39-1.44,1.06,.26,1.71,1.33,1.44,2.39-.8,3.25-1.75,6.51-2.81,9.67-.28,.83-1.05,1.35-1.87,1.35Zm4.75-19.22c-.11,0-.21,0-.32-.03-1.08-.18-1.81-1.19-1.63-2.27,.52-3.2,.92-6.45,1.18-9.68,.09-1.09,1.04-1.88,2.13-1.81,1.09,.09,1.9,1.04,1.81,2.13-.27,3.33-.68,6.69-1.22,9.99-.16,.97-1,1.66-1.95,1.66Zm1.61-19.74c-1.09,0-1.98-.88-1.98-1.98v-.26c0-3.16-.13-6.36-.37-9.49-.08-1.09,.73-2.04,1.82-2.13,1.09-.08,2.04,.73,2.13,1.82,.25,3.24,.38,6.54,.38,9.8v.26c0,1.09-.89,1.98-1.98,1.98Z"/><path class="en" d="M674.96,1067.47c-.39,0-.79-.12-1.14-.36-1.37-.97-2.72-1.96-4.04-2.97-.87-.66-1.03-1.91-.36-2.77,.66-.87,1.91-1.03,2.77-.36,1.28,.98,2.59,1.94,3.91,2.88,.89,.63,1.11,1.86,.48,2.75-.39,.55-1,.84-1.62,.84Z"/></g><g><path class="eo" d="M679.29,1032.16c.4,.49,1.06,.67,1.65,.45l16.82-6.18c6.63,5.11,14.12,9.19,22.27,11.99l4.1,17.43c.14,.61,.66,1.06,1.28,1.13l21.38,2.17c.63,.06,1.22-.28,1.48-.85l7.51-16.25c8.54-1.11,16.7-3.61,24.22-7.28l15.24,9.43c.53,.33,1.22,.29,1.71-.11l16.65-13.59c.49-.4,.67-1.06,.45-1.65l-6.18-16.82c5.11-6.63,9.19-14.12,11.99-22.27l17.43-4.1c.61-.14,1.06-.66,1.13-1.28l2.17-21.38c.06-.63-.28-1.22-.85-1.48l-16.25-7.51c-1.11-8.54-3.61-16.7-7.28-24.22l9.43-15.24c.33-.53,.29-1.22-.11-1.71l-13.59-16.65c-.4-.49-1.06-.67-1.65-.45l-16.82,6.18c-6.63-5.11-14.12-9.19-22.27-11.99l-4.1-17.43c-.14-.61-.66-1.06-1.28-1.13l-21.38-2.17c-.62-.06-1.22,.28-1.48,.85l-7.51,16.25c-8.54,1.11-16.7,3.61-24.22,7.28l-15.24-9.43c-.53-.33-1.22-.29-1.71,.11l-16.65,13.59c-.49,.4-.67,1.06-.45,1.65l6.18,16.82c-5.11,6.63-9.19,14.12-11.99,22.27l-17.43,4.1c-.61,.14-1.06,.66-1.13,1.28l-2.17,21.38c-.06,.62,.28,1.22,.85,1.48l16.25,7.51c1.11,8.54,3.61,16.7,7.28,24.22l-9.43,15.24c-.33,.53-.29,1.22,.11,1.71l13.59,16.65Z"/><path class="em" d="M745.6,985.23c-10.27,0-19.28-7.54-20.82-17.99-1.69-11.49,6.28-22.21,17.77-23.91,11.49-1.68,22.21,6.28,23.91,17.77,1.69,11.49-6.28,22.21-17.77,23.91h0c-1.04,.15-2.07,.23-3.08,.23Zm2.8-2.18h0Zm-2.77-35.99c-.83,0-1.66,.06-2.5,.18-9.33,1.38-15.81,10.09-14.43,19.42,1.38,9.33,10.09,15.81,19.42,14.43h0c9.33-1.37,15.81-10.09,14.43-19.42-1.25-8.49-8.58-14.61-16.91-14.61Z"/><path class="ev" d="M746.04,1017.7c-1.83,0-3.68-.09-5.53-.28-3.63-.37-7.21-1.1-10.66-2.18-.18-.06-.37-.12-.55-.18-.84-.27-1.37-1.04-1.37-1.88,0-.2,.03-.41,.1-.61,.34-1.04,1.45-1.6,2.49-1.27,3.36,1.09,6.86,1.82,10.4,2.18h0c.06,0,.12,.01,.18,.02,8.32,.81,16.53-.44,24.04-3.58,4.4-1.84,8.55-4.32,12.34-7.42,10.32-8.42,16.75-20.37,18.09-33.62,.17-1.72,.26-3.43,.26-5.13,0-11.45-3.91-22.45-11.24-31.44-8.43-10.32-20.37-16.75-33.62-18.09-13.26-1.34-26.24,2.56-36.57,10.98-10.32,8.42-16.75,20.37-18.09,33.62-.17,1.69-.26,3.38-.26,5.06,0,7.3,1.6,14.52,4.71,21.13,.13,.27,.19,.56,.19,.84,0,.74-.42,1.45-1.14,1.79-.99,.46-2.16,.04-2.63-.95-3.35-7.14-5.08-14.93-5.08-22.81,0-1.82,.09-3.64,.28-5.46,1.45-14.31,8.38-27.19,19.53-36.29,11.14-9.09,25.17-13.3,39.46-11.85,14.31,1.45,27.19,8.38,36.29,19.53,7.92,9.7,12.13,21.58,12.13,33.93,0,1.84-.09,3.68-.28,5.53-1.45,14.31-8.38,27.19-19.53,36.29-9.7,7.92-21.58,12.13-33.94,12.13Z"/></g></g><g><g class="hj"><path class="ex" d="M1653.97,575.08c-2.14,0-4.11-1.4-4.74-3.55-.76-2.59-1.47-5.23-2.12-7.83-.66-2.65,.96-5.33,3.6-5.99,2.65-.65,5.33,.96,5.99,3.61,.61,2.47,1.29,4.97,2.01,7.43,.77,2.62-.73,5.36-3.35,6.13-.47,.14-.93,.2-1.39,.2Z"/><path class="f`" d="M1647.36,541.59c-2.5,0-4.65-1.89-4.91-4.43-.57-5.48-.91-11.06-1.01-16.56-.05-2.73,2.12-4.98,4.85-5.03,2.81-.04,4.98,2.12,5.03,4.85,.1,5.23,.42,10.51,.96,15.72,.28,2.71-1.69,5.14-4.4,5.43-.17,.02-.35,.03-.52,.03Zm.33-42.36c-.19,0-.39-.01-.59-.03-2.71-.32-4.65-2.78-4.32-5.49,.65-5.48,1.54-10.99,2.65-16.37,.55-2.67,3.17-4.39,5.84-3.84,2.67,.55,4.39,3.16,3.84,5.84-1.05,5.1-1.9,10.33-2.52,15.54-.3,2.51-2.43,4.36-4.9,4.36Zm9.65-41.24c-.55,0-1.11-.09-1.66-.29-2.57-.92-3.91-3.74-2.99-6.31,1.85-5.18,3.95-10.35,6.24-15.37,1.13-2.48,4.07-3.57,6.55-2.44,2.48,1.13,3.58,4.07,2.44,6.55-2.17,4.76-4.16,9.67-5.92,14.59-.72,2.02-2.62,3.28-4.66,3.28Zm18.63-38.05c-.91,0-1.83-.25-2.65-.78-2.3-1.47-2.98-4.52-1.51-6.82,2.96-4.64,6.16-9.21,9.51-13.59,1.66-2.16,4.76-2.58,6.93-.92,2.17,1.66,2.58,4.76,.92,6.93-3.18,4.16-6.22,8.5-9.03,12.9-.94,1.48-2.54,2.28-4.17,2.28Zm26.64-32.95c-1.28,0-2.55-.49-3.52-1.47-1.92-1.94-1.9-5.07,.04-6.99,3.92-3.87,8.05-7.62,12.28-11.15,2.1-1.75,5.22-1.46,6.96,.64,1.75,2.1,1.46,5.21-.64,6.96-4.02,3.35-7.94,6.9-11.66,10.58-.96,.95-2.22,1.43-3.47,1.43Zm33.26-26.23c-1.65,0-3.26-.83-4.2-2.33-1.44-2.32-.73-5.36,1.58-6.81,4.68-2.91,9.54-5.66,14.44-8.16,2.43-1.24,5.41-.27,6.65,2.16,1.24,2.43,.27,5.41-2.16,6.65-4.66,2.37-9.27,4.98-13.71,7.74-.81,.5-1.72,.75-2.61,.75Zm178.19-11.64c-.68,0-1.38-.14-2.04-.44-4.77-2.16-9.68-4.14-14.61-5.88-2.57-.91-3.92-3.73-3.01-6.31,.91-2.57,3.74-3.91,6.31-3.01,5.19,1.83,10.37,3.92,15.39,6.2,2.49,1.13,3.59,4.06,2.46,6.54-.83,1.82-2.62,2.9-4.5,2.9Zm-139.97-6.57c-2.05,0-3.96-1.29-4.67-3.33-.89-2.58,.48-5.39,3.06-6.28,5.21-1.8,10.56-3.39,15.89-4.73,2.65-.66,5.33,.94,6,3.59,.66,2.65-.94,5.33-3.59,6-5.06,1.27-10.13,2.78-15.08,4.49-.53,.18-1.08,.27-1.61,.27Zm99.67-6.47c-.33,0-.66-.03-.99-.1-5.13-1.04-10.36-1.87-15.56-2.47-2.71-.31-4.65-2.77-4.34-5.48,.31-2.71,2.75-4.67,5.48-4.34,5.47,.63,10.98,1.51,16.38,2.61,2.67,.54,4.4,3.15,3.86,5.83-.48,2.34-2.54,3.96-4.84,3.96Zm-58.35-2.75c-2.49,0-4.64-1.88-4.91-4.42-.29-2.71,1.67-5.15,4.39-5.44,5.48-.59,11.05-.94,16.55-1.06,.03,0,.07,0,.11,0,2.68,0,4.88,2.14,4.94,4.84,.06,2.73-2.11,4.99-4.84,5.04-5.22,.11-10.51,.45-15.71,1-.18,.02-.36,.03-.53,.03Z"/><path class="er" d="M1943.87,366.05c-.97,0-1.96-.29-2.82-.89-2.07-1.44-4.22-2.87-6.41-4.26-2.3-1.46-2.98-4.52-1.52-6.82,1.47-2.31,4.52-2.98,6.82-1.52,2.3,1.46,4.57,2.97,6.75,4.49,2.24,1.56,2.79,4.64,1.23,6.88-.96,1.38-2.5,2.12-4.06,2.12Z"/></g><g class="hj"><path class="eq" d="M2022.93,491.7c-2.39,0-4.49-1.73-4.87-4.16-.4-2.53-.87-5.08-1.37-7.58-.54-2.68,1.19-5.28,3.86-5.83,2.68-.54,5.28,1.19,5.82,3.86,.53,2.63,1.02,5.32,1.45,7.98,.43,2.69-1.41,5.23-4.1,5.66-.26,.04-.53,.06-.79,.06Z"/><path class="ew" d="M1836.13,711.19c-2.32,.03-4.53-.04-6.8-.12-2.73-.09-4.86-2.38-4.77-5.11,.1-2.73,2.37-4.91,5.11-4.77,2.16,.08,4.31,.13,6.46,.11,3.01,0,6.04-.08,9.04-.22,2.79-.12,5.05,1.97,5.18,4.69,.14,2.73-1.97,5.05-4.69,5.18-3.16,.16-6.36,.24-9.52,.24Zm-32.33-2.72c-.28,0-.55-.02-.84-.07-5.35-.91-10.72-2.06-15.96-3.41-2.64-.68-4.23-3.38-3.55-6.02,.68-2.64,3.37-4.23,6.02-3.55,4.97,1.28,10.07,2.37,15.15,3.24,2.69,.46,4.5,3.01,4.04,5.7-.41,2.41-2.5,4.11-4.87,4.11Zm67.26-.55c-2.33,0-4.4-1.65-4.85-4.02-.51-2.68,1.26-5.27,3.94-5.77,5.06-.95,10.13-2.13,15.08-3.51,2.63-.73,5.35,.81,6.08,3.44,.73,2.63-.81,5.35-3.44,6.08-5.22,1.45-10.57,2.69-15.9,3.7-.31,.06-.62,.08-.92,.08Zm-107.34-10.94c-.63,0-1.26-.12-1.88-.37-5.02-2.06-10.01-4.37-14.82-6.84-2.43-1.25-3.38-4.23-2.14-6.65,1.25-2.43,4.22-3.38,6.65-2.14,4.57,2.35,9.3,4.53,14.07,6.49,2.52,1.04,3.73,3.93,2.69,6.45-.79,1.91-2.63,3.06-4.57,3.06Zm147.18-1.26c-1.91,0-3.73-1.12-4.54-2.98-1.08-2.5,.07-5.41,2.57-6.5,4.73-2.05,9.42-4.32,13.95-6.74,2.4-1.29,5.4-.39,6.69,2.02,1.29,2.41,.39,5.4-2.02,6.69-4.76,2.55-9.7,4.94-14.69,7.1-.64,.28-1.31,.41-1.96,.41Zm36.2-20.65c-1.53,0-3.03-.71-4-2.04-1.6-2.21-1.11-5.3,1.09-6.9,4.17-3.03,8.25-6.27,12.15-9.62,2.07-1.78,5.19-1.55,6.97,.52,1.78,2.07,1.55,5.19-.51,6.97-4.1,3.53-8.4,6.94-12.79,10.13-.88,.64-1.89,.94-2.9,.94Zm30.84-28.03c-1.16,0-2.33-.41-3.27-1.24-2.05-1.81-2.24-4.93-.43-6.98,3.41-3.86,6.69-7.9,9.76-12.03,1.63-2.19,4.72-2.64,6.92-1.02,2.19,1.63,2.64,4.73,1.01,6.91-3.24,4.35-6.7,8.61-10.28,12.68-.98,1.1-2.34,1.67-3.71,1.67Zm23.99-34.1c-.8,0-1.62-.2-2.38-.61-2.39-1.32-3.26-4.32-1.95-6.71,2.48-4.5,4.79-9.17,6.89-13.88,1.11-2.5,4.03-3.62,6.52-2.51,2.49,1.11,3.62,4.03,2.51,6.52-2.21,4.96-4.65,9.88-7.26,14.63-.9,1.63-2.59,2.56-4.33,2.56Zm15.93-38.54c-.45,0-.91-.06-1.37-.2-2.62-.76-4.13-3.5-3.38-6.12,1.42-4.93,2.65-9.99,3.66-15.05,.53-2.68,3.13-4.41,5.81-3.88,2.68,.53,4.41,3.13,3.88,5.81-1.06,5.33-2.36,10.66-3.86,15.86-.62,2.16-2.6,3.57-4.75,3.57Zm7.08-41.07c-.1,0-.21,0-.31,0-2.72-.17-4.8-2.51-4.63-5.24,.24-3.82,.36-7.69,.36-11.5,0-1.34-.02-2.67-.04-4-.06-2.73,2.11-4.99,4.84-5.04,2.75-.1,4.99,2.11,5.05,4.84,.03,1.4,.05,2.8,.05,4.21,0,4.01-.13,8.08-.37,12.11-.16,2.62-2.34,4.64-4.93,4.64Z"/><path class="gl" d="M1727.04,676.88c-.98,0-1.97-.29-2.84-.9-2.22-1.56-4.42-3.18-6.54-4.8-2.17-1.66-2.57-4.76-.91-6.93,1.66-2.16,4.76-2.58,6.93-.91,2,1.54,4.09,3.07,6.2,4.55,2.23,1.57,2.77,4.65,1.2,6.89-.96,1.37-2.49,2.1-4.05,2.1Z"/></g><g><path class="fs" d="M1733.51,620.3c.61,.75,1.64,1.03,2.55,.7l25.98-9.55c10.24,7.89,21.81,14.2,34.39,18.52l6.34,26.92c.22,.94,1.02,1.64,1.98,1.74l33.03,3.35c.97,.1,1.89-.43,2.29-1.31l11.61-25.11c13.19-1.71,25.79-5.57,37.41-11.25l23.53,14.57c.83,.51,1.88,.44,2.63-.17l25.72-20.99c.75-.61,1.03-1.64,.7-2.55l-9.55-25.98c7.89-10.24,14.2-21.81,18.52-34.39l26.92-6.34c.94-.22,1.64-1.02,1.74-1.98l3.35-33.03c.1-.97-.43-1.89-1.31-2.29l-25.11-11.61c-1.71-13.19-5.57-25.79-11.25-37.41l14.57-23.53c.51-.82,.44-1.88-.17-2.63l-20.99-25.72c-.61-.75-1.64-1.03-2.55-.7l-25.98,9.55c-10.24-7.89-21.81-14.2-34.39-18.52l-6.34-26.92c-.22-.94-1.02-1.64-1.98-1.74l-33.03-3.35c-.96-.1-1.89,.43-2.29,1.31l-11.61,25.11c-13.19,1.71-25.79,5.57-37.41,11.25l-23.53-14.57c-.82-.51-1.88-.44-2.63,.17l-25.72,20.99c-.75,.61-1.03,1.64-.7,2.55l9.55,25.98c-7.89,10.24-14.2,21.81-18.52,34.39l-26.92,6.34c-.94,.22-1.64,1.02-1.74,1.98l-3.35,33.03c-.1,.97,.43,1.89,1.31,2.29l25.11,11.61c1.71,13.19,5.57,25.79,11.25,37.41l-14.57,23.53c-.51,.82-.44,1.88,.17,2.63l20.99,25.72Z"/><path class="fv" d="M1835.87,550.7c-7.55,0-14.87-2.41-21.04-7-7.59-5.64-12.53-13.9-13.91-23.26-1.38-9.36,.97-18.69,6.61-26.28s13.9-12.53,23.26-13.91c9.36-1.38,18.69,.97,26.28,6.61,7.59,5.64,12.53,13.9,13.91,23.26,2.85,19.32-10.55,37.34-29.87,40.19h0c-1.75,.26-3.5,.39-5.24,.39Zm4.37-6.25h0Zm-4.25-52.72c-1.16,0-2.32,.09-3.48,.26-6.22,.92-11.72,4.2-15.47,9.25-3.75,5.05-5.31,11.25-4.4,17.48,.92,6.22,4.2,11.72,9.25,15.47,5.05,3.75,11.25,5.31,17.48,4.4,12.85-1.89,21.76-13.89,19.86-26.73-.92-6.22-4.2-11.72-9.25-15.47-4.1-3.05-8.97-4.65-14-4.65Z"/><path class="fu" d="M1836.61,596.89c-2.8,0-5.61-.14-8.43-.43h0c-5.82-.59-11.58-1.8-17.1-3.58-.84-.27-1.37-1.04-1.37-1.88,0-.2,.03-.41,.1-.61,.34-1.04,1.45-1.61,2.49-1.27,5.26,1.7,10.74,2.85,16.28,3.41,20.75,2.11,41.1-4,57.27-17.2,16.17-13.19,26.23-31.9,28.33-52.66,.27-2.69,.41-5.37,.41-8.03,0-17.93-6.12-35.16-17.61-49.24-13.19-16.17-31.89-26.23-52.66-28.33-42.88-4.36-81.27,26.99-85.61,69.86-.27,2.64-.4,5.29-.4,7.93,0,11.43,2.51,22.74,7.37,33.1,.13,.27,.19,.56,.19,.84,0,.74-.42,1.45-1.14,1.79-.99,.46-2.17,.04-2.63-.95-5.11-10.88-7.74-22.77-7.75-34.78,0-2.77,.14-5.55,.42-8.33,4.56-45.03,44.92-77.94,89.94-73.39,42.23,4.28,73.81,40.02,73.81,81.59,0,2.76-.14,5.54-.42,8.35-2.21,21.81-12.78,41.46-29.77,55.32-14.79,12.07-32.91,18.5-51.74,18.5Z"/></g></g><g><g class="hj"><path class="fp" d="M1930.27,358.06c-2.14,0-4.11-1.4-4.74-3.55-.78-2.64-1.46-5.35-2.02-8.04-.56-2.67,1.15-5.29,3.82-5.85,2.67-.57,5.29,1.15,5.85,3.82,.51,2.44,1.13,4.89,1.83,7.29,.77,2.62-.73,5.36-3.35,6.13-.47,.14-.93,.2-1.39,.2Z"/><path class="fl" d="M1926.3,324.71c-.08,0-.16,0-.24,0-2.73-.13-4.83-2.44-4.7-5.17,.04-.8,.08-1.6,.14-2.4,.33-4.74,.97-9.5,1.92-14.12,.55-2.67,3.15-4.41,5.83-3.85,2.67,.55,4.4,3.16,3.85,5.83-.86,4.2-1.44,8.51-1.74,12.82-.05,.73-.09,1.45-.13,2.18-.12,2.65-2.31,4.71-4.93,4.71Zm10.29-40.14c-.73,0-1.48-.16-2.18-.51-2.45-1.2-3.46-4.17-2.25-6.62,2.44-4.96,5.3-9.78,8.51-14.33,1.57-2.23,4.66-2.76,6.89-1.19,2.23,1.57,2.77,4.66,1.19,6.89-2.91,4.12-5.5,8.5-7.72,13-.86,1.75-2.61,2.76-4.44,2.76Zm25.51-32.67c-1.4,0-2.79-.59-3.77-1.75-1.77-2.08-1.51-5.2,.57-6.96,4.23-3.59,8.77-6.87,13.49-9.75,2.33-1.42,5.37-.69,6.79,1.64,1.42,2.33,.69,5.37-1.64,6.79-4.29,2.62-8.41,5.6-12.25,8.85-.93,.79-2.06,1.17-3.19,1.17Zm36.38-19.82c-2.12,0-4.08-1.38-4.73-3.52-.79-2.61,.69-5.37,3.3-6.16,5.31-1.6,10.78-2.79,16.27-3.54,2.71-.38,5.2,1.52,5.57,4.23,.37,2.7-1.52,5.19-4.23,5.56-4.98,.68-9.94,1.76-14.76,3.21-.48,.14-.96,.21-1.43,.21Zm56.87-.53c-.44,0-.89-.06-1.34-.19-4.83-1.35-9.82-2.33-14.83-2.92-2.71-.32-4.65-2.77-4.33-5.48,.32-2.71,2.76-4.64,5.48-4.33,5.52,.65,11.02,1.73,16.35,3.22,2.63,.74,4.16,3.46,3.43,6.09-.61,2.18-2.6,3.61-4.76,3.61Z"/><path class="fn" d="M2085.83,245.9c-.97,0-1.96-.29-2.82-.89-2.03-1.41-4.17-2.78-6.33-4.05-2.36-1.38-3.14-4.41-1.76-6.76,1.38-2.35,4.41-3.14,6.76-1.76,2.39,1.4,4.74,2.9,6.98,4.46,2.24,1.56,2.79,4.64,1.23,6.88-.96,1.38-2.5,2.12-4.06,2.12Z"/></g><g class="hj"><path class="fm" d="M2128.77,316.95c-2.46,0-4.59-1.83-4.9-4.34-.3-2.48-.71-4.98-1.21-7.42-.54-2.67,1.19-5.28,3.86-5.83,2.68-.55,5.28,1.19,5.83,3.86,.55,2.69,.99,5.44,1.33,8.18,.33,2.71-1.59,5.17-4.3,5.51-.2,.03-.41,.04-.61,.04Z"/><path class="ft" d="M2035.9,430.79c-2.55,0-4.72-1.97-4.92-4.55-.21-2.72,1.82-5.1,4.54-5.31,4.94-.39,9.88-1.16,14.68-2.3,2.66-.63,5.32,1.01,5.95,3.67,.63,2.66-1.01,5.32-3.67,5.95-5.29,1.25-10.74,2.11-16.18,2.53-.13,0-.26,.02-.39,.02Zm-25.31-1.16c-.28,0-.56-.02-.84-.07-5.38-.92-10.73-2.26-15.89-4-2.59-.87-3.98-3.67-3.11-6.26,.87-2.59,3.67-3.98,6.26-3.11,4.68,1.57,9.53,2.79,14.41,3.63,2.69,.46,4.5,3.01,4.04,5.7-.41,2.41-2.5,4.11-4.87,4.11Zm64.47-10.14c-1.78,0-3.49-.96-4.38-2.64-1.27-2.42-.34-5.41,2.08-6.67,4.37-2.3,8.61-4.96,12.59-7.9,2.19-1.62,5.29-1.16,6.91,1.03,1.62,2.19,1.16,5.29-1.03,6.91-4.39,3.24-9.05,6.17-13.87,8.7-.73,.39-1.52,.57-2.29,.57Zm31.57-25.79c-1.1,0-2.21-.36-3.12-1.12-2.11-1.73-2.43-4.84-.7-6.95,3.13-3.83,5.99-7.94,8.49-12.2,1.38-2.35,4.41-3.14,6.76-1.76,2.35,1.38,3.14,4.41,1.76,6.76-2.76,4.69-5.91,9.22-9.36,13.44-.98,1.19-2.4,1.81-3.83,1.81Zm18.93-36.11c-.45,0-.91-.06-1.37-.19-2.62-.75-4.14-3.49-3.38-6.11,1.36-4.74,2.37-9.63,2.99-14.55,.34-2.71,2.81-4.62,5.52-4.28,2.71,.34,4.62,2.82,4.28,5.52-.69,5.42-1.8,10.82-3.3,16.04-.62,2.17-2.6,3.58-4.75,3.58Z"/><path class="gr" d="M1972.52,414.74c-.92,0-1.86-.26-2.69-.8-2.31-1.51-4.59-3.11-6.76-4.78-2.17-1.66-2.58-4.76-.92-6.93,1.66-2.17,4.76-2.58,6.93-.92,1.98,1.52,4.04,2.97,6.14,4.34,2.29,1.49,2.94,4.55,1.45,6.84-.95,1.46-2.53,2.25-4.15,2.25Z"/></g><g><path class="gu" d="M1972.95,380.04c.33,.4,.88,.55,1.37,.37l13.94-5.13c5.49,4.23,11.7,7.62,18.45,9.94l3.4,14.45c.12,.51,.55,.88,1.06,.93l17.72,1.8c.52,.05,1.01-.23,1.23-.7l6.23-13.47c7.08-.92,13.84-2.99,20.07-6.04l12.63,7.82c.44,.27,1.01,.24,1.41-.09l13.8-11.26c.4-.33,.55-.88,.37-1.37l-5.13-13.94c4.23-5.49,7.62-11.7,9.94-18.45l14.45-3.4c.51-.12,.88-.55,.93-1.06l1.8-17.72c.05-.52-.23-1.01-.7-1.23l-13.47-6.23c-.92-7.08-2.99-13.84-6.04-20.07l7.82-12.63c.27-.44,.24-1.01-.09-1.41l-11.26-13.8c-.33-.4-.88-.55-1.37-.37l-13.94,5.13c-5.49-4.23-11.7-7.62-18.45-9.94l-3.4-14.45c-.12-.51-.55-.88-1.06-.93l-17.72-1.8c-.52-.05-1.01,.23-1.23,.7l-6.23,13.47c-7.08,.92-13.84,2.99-20.07,6.04l-12.63-7.82c-.44-.27-1.01-.24-1.41,.09l-13.8,11.26c-.4,.33-.55,.88-.37,1.37l5.13,13.94c-4.23,5.49-7.62,11.7-9.94,18.45l-14.45,3.4c-.51,.12-.88,.55-.93,1.06l-1.8,17.72c-.05,.52,.23,1.01,.7,1.23l13.47,6.23c.92,7.08,2.99,13.84,6.04,20.07l-7.82,12.63c-.27,.44-.24,1.01,.09,1.41l11.26,13.8Z"/><path class="gt" d="M2027.88,345.44c-4.64,0-9.13-1.48-12.92-4.29-4.66-3.47-7.7-8.54-8.54-14.29-1.75-11.86,6.48-22.94,18.34-24.69,5.75-.85,11.48,.59,16.14,4.06,4.66,3.47,7.7,8.54,8.54,14.28,.85,5.75-.59,11.48-4.06,16.14-3.46,4.66-8.54,7.7-14.29,8.54h0c-1.08,.16-2.15,.24-3.22,.24Zm.07-31.64c-.48,0-.97,.04-1.46,.11-5.39,.8-9.14,5.83-8.34,11.22,.39,2.61,1.77,4.92,3.88,6.5,2.12,1.58,4.73,2.23,7.34,1.85h0c2.61-.38,4.92-1.76,6.49-3.88,1.58-2.12,2.23-4.73,1.85-7.34-.39-2.61-1.76-4.92-3.88-6.5-1.72-1.28-3.77-1.95-5.88-1.95Z"/><path class="go" d="M2028.28,368.39c-1.53,0-3.07-.08-4.62-.23-3.01-.3-6-.91-8.87-1.81-.17-.05-.33-.1-.5-.16-.84-.27-1.37-1.04-1.37-1.88,0-.2,.03-.41,.1-.61,.33-1.04,1.45-1.61,2.49-1.27,2.76,.89,5.64,1.5,8.55,1.79,6.27,.64,12.47-.15,18.21-2.26,4.04-1.48,7.85-3.61,11.32-6.34,.06-.05,.12-.1,.18-.15,.11-.09,.23-.18,.34-.28,8.49-6.93,13.77-16.74,14.87-27.64,.14-1.41,.21-2.82,.21-4.22,0-9.41-3.21-18.46-9.24-25.85-6.93-8.49-16.74-13.77-27.64-14.87-10.89-1.1-21.57,2.1-30.06,9.03-8.49,6.93-13.77,16.74-14.87,27.64-.14,1.39-.21,2.78-.21,4.16,0,6,1.32,11.94,3.87,17.37,.13,.27,.19,.56,.19,.84,0,.74-.42,1.45-1.14,1.79-.99,.47-2.16,.04-2.63-.95-2.8-5.96-4.24-12.47-4.24-19.05,0-1.52,.08-3.04,.23-4.56,1.21-11.95,7-22.71,16.31-30.3,9.3-7.6,21.02-11.11,32.96-9.9,11.95,1.21,22.71,7,30.3,16.31,6.61,8.1,10.13,18.02,10.13,28.34,0,1.53-.08,3.07-.23,4.62-1.21,11.95-7,22.71-16.31,30.3-8.1,6.61-18.02,10.13-28.34,10.13Z"/></g></g><g><g class="hj"><path class="fo" d="M1141.13,550.24c-.86,0-1.64-.56-1.9-1.42-.47-1.6-.9-3.24-1.29-4.88-.25-1.06,.41-2.13,1.47-2.38,1.06-.25,2.13,.41,2.38,1.47,.37,1.57,.78,3.14,1.23,4.67,.31,1.05-.29,2.14-1.34,2.45-.19,.05-.37,.08-.56,.08Z"/><path class="fr" d="M1138.15,535.61c-.99,0-1.84-.74-1.96-1.74-.4-3.37-.61-6.81-.62-10.21,0-1.09,.87-1.98,1.97-1.99h.01c1.09,0,1.97,.88,1.98,1.97,.02,3.25,.22,6.54,.6,9.76,.13,1.08-.65,2.07-1.73,2.19-.08,0-.16,.01-.23,.01Zm-.1-19.97c-.07,0-.14,0-.21-.01-1.09-.11-1.87-1.09-1.76-2.17,.36-3.39,.91-6.78,1.64-10.08,.23-1.07,1.29-1.73,2.36-1.51,1.07,.23,1.74,1.29,1.51,2.36-.69,3.16-1.22,6.41-1.56,9.65-.11,1.01-.97,1.77-1.96,1.77Zm4.29-19.5c-.21,0-.43-.03-.64-.11-1.03-.35-1.58-1.48-1.23-2.51,1.1-3.21,2.39-6.4,3.85-9.48,.47-.99,1.64-1.41,2.63-.94,.99,.47,1.41,1.65,.94,2.63-1.39,2.94-2.63,5.99-3.68,9.06-.28,.82-1.05,1.34-1.87,1.34Zm8.54-18.06c-.36,0-.72-.09-1.04-.3-.93-.58-1.21-1.8-.64-2.72,1.79-2.89,3.76-5.7,5.86-8.37,.68-.86,1.92-1,2.77-.33,.86,.68,1.01,1.92,.33,2.78-2.01,2.55-3.9,5.25-5.61,8.01-.37,.6-1.02,.94-1.68,.94Zm12.35-15.7c-.5,0-1-.19-1.39-.57-.78-.77-.79-2.02-.02-2.8,2.38-2.42,4.93-4.73,7.57-6.87,.85-.69,2.09-.55,2.78,.29,.69,.85,.56,2.09-.29,2.78-2.52,2.04-4.96,4.26-7.24,6.57-.39,.39-.9,.59-1.41,.59Zm15.51-12.58c-.65,0-1.29-.32-1.67-.91-.59-.92-.32-2.14,.6-2.73,2.86-1.83,5.85-3.52,8.9-5.02,.98-.48,2.16-.08,2.65,.9,.48,.98,.08,2.16-.9,2.65-2.91,1.44-5.77,3.05-8.51,4.81-.33,.21-.7,.31-1.06,.31Zm86.09-5.66c-.28,0-.57-.06-.84-.19-2.94-1.38-5.99-2.61-9.07-3.65-1.03-.35-1.59-1.47-1.24-2.5,.35-1.04,1.47-1.6,2.51-1.24,3.22,1.09,6.41,2.37,9.49,3.81,.99,.46,1.41,1.64,.95,2.63-.34,.72-1.05,1.14-1.79,1.14Zm-68.19-3.17c-.81,0-1.57-.5-1.86-1.31-.37-1.03,.16-2.16,1.19-2.53,3.19-1.15,6.49-2.14,9.8-2.92,1.05-.25,2.13,.4,2.38,1.47,.25,1.06-.4,2.13-1.47,2.38-3.16,.75-6.31,1.69-9.37,2.79-.22,.08-.45,.12-.67,.12Zm49.27-3.22c-.14,0-.28-.01-.42-.04-3.16-.69-6.41-1.2-9.66-1.53-1.09-.11-1.88-1.08-1.76-2.17,.11-1.08,1.06-1.85,2.17-1.77,3.4,.35,6.79,.89,10.09,1.6,1.07,.23,1.74,1.28,1.51,2.35-.2,.92-1.02,1.56-1.93,1.56Zm-29.85-1.39c-.99,0-1.84-.74-1.96-1.74-.13-1.08,.64-2.07,1.72-2.2,3.37-.41,6.8-.63,10.2-.66h.02c1.08,0,1.97,.87,1.98,1.96,0,1.09-.87,1.98-1.96,1.99-3.25,.03-6.53,.24-9.75,.63-.08,0-.16,.01-.24,.01Z"/><path class="fq" d="M1277.84,451.67c-.39,0-.78-.11-1.13-.35-1.33-.92-2.69-1.81-4.04-2.65-.93-.57-1.22-1.79-.65-2.72,.57-.93,1.79-1.22,2.72-.65,1.41,.87,2.84,1.8,4.22,2.77,.9,.62,1.12,1.86,.5,2.75-.38,.55-1,.85-1.63,.85Z"/></g><g class="hj"><path class="gs" d="M1315.31,512.12c-.97,0-1.81-.71-1.95-1.69-.23-1.57-.51-3.17-.83-4.76-.22-1.07,.47-2.11,1.54-2.33,1.07-.2,2.11,.47,2.33,1.54,.34,1.66,.63,3.34,.87,4.98,.16,1.08-.59,2.08-1.67,2.24-.1,.02-.19,.02-.29,.02Z"/><path class="gw" d="M1226.98,614.43c-1.42,0-2.85-.03-4.29-.1-1.09-.05-1.93-.97-1.88-2.06,.05-1.09,.98-1.97,2.06-1.89,3.22,.15,6.44,.12,9.62-.08,1.11-.02,2.03,.76,2.1,1.85,.07,1.09-.76,2.03-1.85,2.1-1.91,.12-3.85,.18-5.76,.18Zm-13.99-1.08c-.1,0-.2,0-.31-.02-3.31-.52-6.62-1.22-9.84-2.1-1.05-.29-1.68-1.37-1.39-2.43,.29-1.05,1.38-1.68,2.43-1.39,3.08,.84,6.24,1.51,9.41,2.01,1.08,.17,1.82,1.18,1.65,2.26-.15,.97-.99,1.67-1.95,1.67Zm29.39-.25c-.94,0-1.78-.68-1.94-1.63-.19-1.08,.53-2.1,1.61-2.29,3.15-.55,6.3-1.28,9.37-2.18,1.05-.3,2.15,.3,2.45,1.34,.31,1.05-.3,2.14-1.34,2.45-3.21,.94-6.5,1.7-9.79,2.28-.11,.02-.23,.03-.34,.03Zm-48.36-4.9c-.24,0-.49-.04-.72-.14-3.11-1.23-6.18-2.64-9.14-4.21-.96-.51-1.33-1.71-.82-2.67,.51-.97,1.7-1.34,2.67-.82,2.83,1.5,5.77,2.85,8.74,4.03,1.02,.4,1.51,1.55,1.11,2.56-.31,.78-1.05,1.25-1.84,1.25Zm67.21-.61c-.77,0-1.51-.46-1.83-1.21-.42-1.01,.06-2.17,1.06-2.59,2.95-1.23,5.86-2.64,8.66-4.19,.96-.53,2.16-.18,2.69,.77,.53,.96,.18,2.16-.77,2.69-2.92,1.62-5.97,3.09-9.05,4.38-.25,.1-.51,.15-.76,.15Zm17.18-9.51c-.62,0-1.23-.29-1.62-.84-.63-.89-.42-2.12,.47-2.75,2.61-1.85,5.15-3.85,7.54-5.98,.82-.72,2.07-.64,2.79,.17,.72,.82,.65,2.07-.17,2.79-2.5,2.21-5.15,4.32-7.88,6.24-.35,.25-.75,.36-1.14,.36Zm14.7-13.03c-.47,0-.95-.17-1.33-.51-.81-.73-.87-1.98-.14-2.79,2.15-2.37,4.19-4.89,6.06-7.47,.64-.88,1.88-1.08,2.76-.44,.88,.64,1.08,1.88,.44,2.76-1.96,2.7-4.09,5.33-6.34,7.81-.39,.43-.93,.65-1.47,.65Zm11.52-15.91c-.33,0-.67-.08-.97-.26-.95-.54-1.28-1.75-.74-2.69,1.58-2.78,3.02-5.68,4.28-8.62,.43-1,1.6-1.47,2.6-1.04,1,.43,1.47,1.59,1.04,2.6-1.32,3.07-2.82,6.1-4.47,9.01-.36,.64-1.03,1-1.72,1Zm7.75-18.06c-.19,0-.38-.03-.57-.08-1.04-.32-1.64-1.42-1.32-2.47,.92-3.05,1.69-6.2,2.28-9.34,.2-1.07,1.23-1.78,2.3-1.58,1.07,.2,1.78,1.23,1.58,2.3-.61,3.29-1.41,6.58-2.38,9.77-.26,.85-1.04,1.4-1.89,1.4Zm3.59-19.31s-.1,0-.15,0c-1.09-.08-1.91-1.03-1.83-2.12l.04-.5c.14-2.03,.21-4.09,.21-6.12,0-1.01-.02-2.01-.05-3-.04-1.09,.82-2.01,1.91-2.04,1.15-.07,2.01,.82,2.04,1.91,.04,1.04,.05,2.09,.05,3.14,0,2.12-.07,4.26-.22,6.39l-.04,.52c-.08,1.04-.94,1.83-1.97,1.83Z"/><path class="h`" d="M1176.59,598.94c-.38,0-.77-.11-1.11-.34-1.37-.93-2.74-1.93-4.09-2.96-.87-.66-1.03-1.91-.37-2.77,.67-.86,1.91-1.03,2.77-.37,1.29,.99,2.61,1.94,3.91,2.83,.9,.62,1.13,1.85,.52,2.75-.38,.56-1,.86-1.64,.86Z"/></g><g><path class="gy" d="M1178.64,571.92c.29,.35,.77,.49,1.2,.33l12.25-4.51c4.83,3.72,10.29,6.7,16.22,8.73l2.99,12.7c.1,.45,.48,.78,.94,.82l15.58,1.58c.46,.05,.89-.2,1.08-.62l5.47-11.84c6.22-.81,12.16-2.63,17.64-5.3l11.1,6.87c.39,.24,.89,.21,1.24-.08l12.13-9.9c.35-.29,.49-.77,.33-1.2l-4.5-12.25c3.72-4.83,6.7-10.29,8.73-16.22l12.7-2.99c.45-.1,.77-.48,.82-.94l1.58-15.58c.05-.46-.2-.89-.62-1.08l-11.84-5.47c-.81-6.22-2.63-12.16-5.3-17.64l6.87-11.1c.24-.39,.21-.89-.08-1.24l-9.9-12.13c-.29-.35-.77-.49-1.2-.33l-12.25,4.5c-4.83-3.72-10.29-6.7-16.22-8.73l-2.99-12.7c-.1-.45-.48-.78-.94-.82l-15.58-1.58c-.45-.05-.89,.2-1.08,.62l-5.47,11.84c-6.22,.81-12.16,2.63-17.64,5.3l-11.1-6.87c-.39-.24-.89-.21-1.24,.08l-12.13,9.9c-.35,.29-.49,.77-.33,1.2l4.5,12.25c-3.72,4.83-6.7,10.29-8.73,16.22l-12.7,2.99c-.44,.1-.77,.48-.82,.94l-1.58,15.58c-.05,.46,.2,.89,.62,1.08l11.84,5.47c.81,6.22,2.63,12.16,5.3,17.64l-6.87,11.1c-.24,.39-.21,.89,.08,1.24l9.9,12.13Z"/><path class="gv" d="M1226.92,538.28c-3.39,0-6.67-1.08-9.44-3.14-3.4-2.53-5.62-6.24-6.24-10.43-.62-4.19,.43-8.38,2.96-11.78,2.53-3.41,6.23-5.62,10.43-6.24,4.19-.62,8.38,.43,11.79,2.96,3.4,2.53,5.62,6.23,6.24,10.43,.62,4.19-.43,8.38-2.96,11.78-2.53,3.41-6.23,5.62-10.43,6.24h0c-.79,.12-1.57,.17-2.35,.17Zm.06-27.81c-.59,0-1.17,.04-1.76,.13-3.15,.46-5.93,2.13-7.83,4.68-1.9,2.56-2.69,5.7-2.23,8.85,.46,3.15,2.13,5.93,4.69,7.83,2.56,1.9,5.7,2.69,8.85,2.23h0c6.51-.96,11.02-7.03,10.06-13.54-.46-3.15-2.13-5.93-4.68-7.83-2.08-1.54-4.54-2.36-7.09-2.36Z"/><path class="gn" d="M1227.22,561.92c-1.33,0-2.68-.07-4.04-.2h0c-2.64-.27-5.24-.8-7.74-1.57-.02,0-.05-.01-.07-.02-.16-.05-.31-.1-.47-.15-.84-.27-1.37-1.04-1.37-1.88,0-.2,.03-.41,.1-.61,.34-1.04,1.45-1.61,2.49-1.27,2.4,.78,4.91,1.3,7.46,1.56,.08,0,.16,.02,.24,.03,13.93,1.29,26.82-5.59,33.78-16.76,2.69-4.32,4.49-9.27,5.13-14.63,.03-.22,.05-.43,.07-.65,.12-1.22,.18-2.44,.18-3.64,0-18.13-13.78-33.72-32.19-35.59-19.63-1.99-37.24,12.37-39.23,32.01-.12,1.21-.18,2.42-.18,3.63,0,5.24,1.15,10.42,3.38,15.16,.13,.27,.19,.56,.19,.84,0,.74-.42,1.45-1.14,1.79-.98,.46-2.17,.04-2.63-.95-2.48-5.28-3.75-11.04-3.75-16.87,0-1.34,.07-2.68,.2-4.01,2.21-21.81,21.77-37.75,43.56-35.55,20.45,2.07,35.75,19.38,35.75,39.52,0,1.34-.07,2.69-.2,4.04-2.07,20.45-19.39,35.75-39.52,35.75Z"/></g></g><g><g><rect class="hg" x="456.05" y="1342.71" width="14.82" height="167.06"/><path class="hg" d="M398.56,1512.99h129.8v-7.2c0-1.58-1.28-2.86-2.86-2.86h-123.87c-1.7,0-3.08,1.38-3.08,3.08v6.98Z"/><rect class="hg" x="374.01" y="1304.55" width="173.44" height="49.19" rx="16.94" ry="16.94"/></g><g><path class="gq" d="M594.83,1454.31s47.91,20.64,45.17,42.23c0,0-49.53-9.5-58.39-23.65-8.86-14.16-3.98-22.36-3.98-22.36l17.2,3.78Z"/><path class="gp" d="M583.1,1430.73l-2.43,21.03c-.37,3.17,1.4,6.3,4.4,7.39,1.51,.54,3.48,.91,6.07,.93,3.66,.02,6.89-2.38,7.87-5.91l4.71-17.01-20.62-6.43Z"/><path class="gx" d="M478.43,1269.48s88.12-4.08,131.97,21.49c43.85,25.57-2.22,148.3-2.22,148.3,0,0-11.46,2.46-27.95-6.35,0,0,23.54-89.84-17.35-105.48-45.97-17.57-93.51-13.3-93.51-13.3l8.81-41.9,.25-2.78Z"/><path class="gm" d="M630.37,1487.07c-10.02-2.2-39.73-14.51-44.25-14.34-4.51,.17-10.91,6.93-10.91,6.93,0,0-1.1,3.7,2.13,9,7.66,5.97,24.15,16.93,43.32,18.13,14.1,.88,22.59-4.73,27.45-10.17-4.25-4.14-11.07-8.08-17.74-9.55Z"/><path class="fh" d="M620.67,1506.79c-19.17-1.2-35.67-12.16-43.32-18.13,2.18,3.59,6.34,7.91,14.15,12.32,19.38,10.95,51.4,9.35,57.75,6.89,5.09-1.97,3.51-6.73-1.13-11.25-4.85,5.44-13.34,11.06-27.45,10.17Z"/><path class="fc" d="M564.69,1468.65c.66,2.48,7.67,9.94,11.73,14.09,1.93,1.97,4.73,2.82,7.42,2.23,1.71-.37,3.64-.96,5.31-1.86,2.51-1.36,3.38-4.55,2.01-7.05l-10.26-18.66-16.21,11.25Z"/><path class="fb" d="M391.1,1262.09s-7.69,54.57,14.55,65.72c22.24,11.15,71.02,18.46,87.82,46.76,16.8,28.3,46.98,83.85,74.44,99.82,0,0,15.68-5.1,20.27-12.81,0,0-32.6-85.69-46.19-106.52-11.78-18.04-29-44.02-53.46-55.26-7-3.22-7.55-10.65-6.32-18.25l2.25-13.85-93.35-5.6Z"/><path class="fa" d="M597.23,1200.23c-31.18,8.9-45.14-78.85-45.01-80.99l-47.81,55.9s28.48,50.12,71.5,55.46c10.88,1.35,20.14-.53,27.9-4.09-5.72-9.37-7.03-18.62-6.58-26.28Z"/><path class="fd" d="M654.97,1171.5c-13.59-5.58-25.12,5.56-25.12,5.56-13.47,13.78-24.15,20.74-32.62,23.16-.44,7.65,.86,16.91,6.58,26.28,16.8-7.7,26.59-23.26,30.63-31.02,1.45-2.8,4.86-3.98,7.69-2.61,2.88,1.39,5.85,3.52,6.04,6.4,.37,5.69,7.14,6.03,7.18,3.93,.04-2.1-5.25-13.34-5.25-13.34,0,0,15.61,10.02,21.69,13.85,6.08,3.83,11.26-2.49,11.26-2.49,0,0-14.49-24.13-28.08-29.71Z"/><path class="fk" d="M403.11,1083.13s41.9-28.59,143.1,23.11c0,0,10.42,13.21,5.54,28.1-4.88,14.89-64.97,95.5-67.3,133.34,0,0-41.07,24.18-94.39,.21,0,0-17.88-99.92,13.06-184.76Z"/><path class="fj" d="M490.36,1046.58l-16.56,32.45c-1.64,3.22-1.3,7.12,.96,9.95,4.56,5.71,14.08,13.39,30.32,8.44,4.83-1.47,8.53-5.4,9.7-10.32l8.58-36.22-33-4.3Z"/><path class="fi" d="M372.08,1196.43c-2.84-19.72,49.28-57.95,49.28-57.95l-18.25-55.35s-99.46,70.98-78.54,128.94c3,8.31,7.47,14.36,12.92,18.65,10.53-21.6,24.82-30.58,34.59-34.29Z"/><path class="gb" d="M444.8,1201.91s-58.96,16.47-71.19-1.48c-.83-1.22-1.32-2.56-1.52-3.99-9.77,3.71-24.06,12.69-34.59,34.29,27.99,22.02,81.97-2.66,96.63-10.06,2.41-1.22,5.19-1.45,7.77-.65,5.22,1.63,14.25,4.16,19.29,3.88,7.37-.4,15.27,26.22,27.81,19.48,0,0-5.7-45.49-44.2-41.46Z"/><g><path class="fg" d="M548.3,1025.34c0,.88-19.62,55.55-19.62,55.55l-30.98-11.87,10.9-54.58s39.7-3.81,39.7,10.9Z"/><path class="ff" d="M514.04,1027.74l-7.99,28.28c-.1,.36-.15,.73-.16,1.1,0,2.31,.57,10.24,8.65,9.16,7.34-.98,14.05-1.76,18.31,.24,1.92,.9,2.83,3.11,2.12,5.1-1.78,4.97-6.01,16.08-11.16,25.18-1.04,1.85-3.34,2.56-5.27,1.69-5.82-2.65-17.93-8.57-26.56-15.62-1.17-.96-1.73-2.46-1.45-3.94,1.36-7.24,5.4-29.24,5.58-35.55,.17-5.92-6.47-10.44-9.4-12.14-.96-.56-1.64-1.47-1.9-2.55-.92-3.81-1.7-12.43,9.3-14.33,2.3-.4,3.8-2.6,3.34-4.89-.93-4.56-.63-11.26,8.02-13.73,8.79-2.51,14.33,2.78,17.14,6.84,1.14,1.64,3.27,2.17,5.09,1.36,1.04-.46,2.29-.48,3.64,.65,1.82,1.53,4.58,1.07,5.92-.9,2.56-3.78,7.22-7.54,15.11-4.99,14,4.53,13.33,20.67,8.2,29.44-5.13,8.77-20.03,3-27.08-2.81-5.36-4.42-13.52-1.78-17.13-.25-1.14,.48-1.99,1.46-2.33,2.65Z"/><path class="fe" d="M494.87,1053.92s6.72-15.87,1.24-20.79c-5.48-4.92-13.12-3.23-12.87,9.02,.31,15.24,11.63,11.77,11.63,11.77Z"/></g></g><g><path class="fx" d="M520.08,1239.45c.11,0,.21,0,.32,0l137.74-.15c3.4,0,6.16-2.77,6.16-6.17,0-3.41-2.78-6.22-6.17-6.16l-137.74,.15c-3.4,0-6.16,2.77-6.16,6.17,0,3.3,2.6,5.99,5.86,6.15Z"/><path class="ge" d="M781.96,1114.39h-114.71c-8.46,0-16.16,4.88-19.77,12.54l-53.03,112.45h142.55c5.45,0,10.35-3.33,12.36-8.4l41.12-104.05c2.38-6.01-2.06-12.53-8.52-12.53Z"/><path class="gd" d="M701.14,1172.04c-2.49,7.72-.65,15.22,4.1,16.75,4.75,1.53,10.62-3.49,13.1-11.22,2.49-7.72,.65-15.22-4.1-16.75-4.75-1.53-10.62,3.49-13.1,11.21Z"/></g><g><g><path class="hg" d="M763.36,1512.99c.76,0,1.54-.14,2.28-.42,2.94-1.13,4.29-4.17,3.03-6.79l-121.39-251.86c-1.26-2.62-4.66-3.83-7.6-2.7-2.94,1.13-4.29,4.17-3.03,6.79l121.39,251.86c.94,1.95,3.08,3.13,5.32,3.13Z"/><path class="hg" d="M626.61,1512.99c2.24,0,4.38-1.17,5.32-3.13l121.39-251.86c1.26-2.62-.09-5.66-3.03-6.79-2.93-1.13-6.34,.08-7.6,2.7l-121.39,251.86c-1.26,2.62,.09,5.66,3.03,6.79,.75,.29,1.52,.42,2.28,.42Z"/><path class="hg" d="M387.6,1512.99c.76,0,1.54-.14,2.28-.42,2.94-1.13,4.29-4.17,3.03-6.79l-121.39-251.86c-1.26-2.62-4.66-3.83-7.6-2.7-2.94,1.13-4.29,4.17-3.03,6.79l121.39,251.86c.94,1.95,3.08,3.13,5.32,3.13Z"/><path class="hg" d="M250.85,1512.99c2.24,0,4.38-1.17,5.32-3.13l121.39-251.86c1.26-2.62-.09-5.66-3.03-6.79-2.93-1.13-6.34,.08-7.6,2.7l-121.39,251.86c-1.26,2.62,.09,5.66,3.03,6.79,.75,.29,1.52,.42,2.28,.42Z"/></g><path class="hh" d="M236.61,1245.61c-.31-1.84,.11-3.74,1.15-5.19,1.04-1.45,2.58-2.28,4.21-2.28H794.22c2.14,0,4.14,1.26,5.3,3.33,1.16,2.08,1.31,4.69,.41,6.93l-5.98,14.89c-1.37,3.41-4.34,5.6-7.61,5.6H245.76c-3.04,0-5.65-2.48-6.23-5.91l-2.92-17.37Z"/></g></g><g><g><path class="hg" d="M1901.5,1454.12s193.99-61.72,191.88-218.47c-1.93-143.31-61.75-260.7-72-279.78-.64-1.2,.12-2.66,1.47-2.82,6.67-.77,21.5-5.88,10.75-37.32-13.6-39.74-52.35-102.71-75.76-101.68-23.41,1.03-5.48,49.95,17.94,88.23,23.42,38.29,32.43,53.65,32.43,53.65,0,0,232.29,369.62-106.7,498.18Z"/><path class="hh" d="M2022.08,943.34c-.81,0-1.62-.33-2.21-.99-1.09-1.22-.99-3.09,.23-4.19,2.75-2.47,4.14-6.74,3.72-11.44-.41-4.56-2.3-8.97-4.36-13.47-10.56-23.08-23.66-45.07-38.91-65.37-4.89-6.51-11.52-13.86-19.44-13.45-1.6,.11-3.04-1.14-3.14-2.78-.1-1.64,1.15-3.04,2.78-3.14,10.72-.68,18.75,8.1,24.54,15.8,15.51,20.64,28.82,43,39.56,66.46,2.28,4.99,4.38,9.92,4.87,15.41,.59,6.56-1.52,12.69-5.67,16.4-.57,.51-1.27,.76-1.98,.76Z"/></g><g><path class="hg" d="M1945.16,885.67s9.92-24.11-31.64-61.31c-36.56-32.73-65.35-49.62-78.31-32.09-12.96,17.53,66.19,83.81,103.38,96.92,0,0,285.93,376.95-37.09,564.94,0,0,336.17-121.75,43.66-568.46Z"/><path class="hh" d="M1933.95,872.27c-1.53,0-2.83-1.17-2.95-2.72-1.44-17.51-38.69-53.75-72.47-70.51-1.94-.96-10.74-2.07-13.05-1.26-.27,.75,.63,2.67,2.43,4.45,6.8,6.73,14.64,12.2,23.31,16.26,1.48,.69,2.12,2.46,1.43,3.94-.69,1.48-2.46,2.13-3.94,1.43-9.28-4.35-17.68-10.2-24.96-17.41-4.49-4.45-5.52-9.45-2.61-12.76,3.63-4.13,17.63-1.16,20.04,.03,32.84,16.29,73.95,53.53,75.74,75.34,.13,1.63-1.08,3.06-2.71,3.2-.08,0-.16,0-.25,0Z"/></g><g><path class="hf" d="M2377.69,1029.31c3.14-3.26,.18-8.64-4.26-7.8-45.18,8.53-163.74,44.72-235.35,194.39-89.84,187.79-166.67,228.24-236.58,238.22,0,0,73.68,21.31,153.84-18.32,196.83-97.31,266.45-348.56,322.35-406.49Z"/><path class="hh" d="M2321.57,1070.76c-3.83,2.62-7.55,5.77-11.2,8.81l-5.4,4.73c-1.79,1.59-3.51,3.27-5.26,4.89-3.54,3.22-6.81,6.75-10.22,10.1l-9.79,10.53c-12.93,14.15-24.76,29.29-35.92,44.87-2.75,3.93-5.62,7.76-8.26,11.76l-7.99,11.95c-2.72,3.94-5.17,8.07-7.71,12.13l-7.56,12.23c-4.75,8.33-9.71,16.54-14.29,24.96-4.56,8.49-8.94,16.85-13.64,25.44-18.48,34.54-40.4,67.25-65.65,97.14-12.55,15-25.72,29.49-39.64,43.24-3.48,3.44-7.07,6.77-10.59,10.16-3.58,3.34-7.21,6.62-10.84,9.9-7.37,6.53-14.73,12.78-22.79,18.88-3.01,2.28-7.3,1.69-9.58-1.32-2.23-2.95-1.71-7.12,1.14-9.44l.17-.14c3.53-2.86,7.23-5.98,10.77-9.12,3.6-3.1,7.12-6.33,10.65-9.53,3.49-3.26,6.97-6.52,10.41-9.84,3.39-3.37,6.83-6.67,10.17-10.09,13.51-13.51,26.39-27.66,38.61-42.35,6.22-7.25,11.97-14.88,17.93-22.35,2.92-3.78,5.68-7.67,8.53-11.5l4.25-5.77c1.42-1.92,2.71-3.93,4.07-5.89l8.07-11.82c2.66-3.96,5.11-8.05,7.68-12.08,5.24-7.99,9.81-16.36,14.56-24.64l14.39-25.33,1.8-3.18,1.91-3.12,3.82-6.23,7.65-12.46c10.78-16.26,21.62-32.49,33.86-47.7,12.08-15.31,24.8-30.14,38.63-43.92l10.61-10.08c3.69-3.2,7.22-6.56,11.04-9.62,7.48-6.3,15.18-12.22,23.73-17.34,.87-.52,2-.24,2.52,.63,.5,.83,.26,1.91-.53,2.45l-.08,.06Z"/></g></g><g><g><path class="gc" d="M1531.5,736.26l10.65,10.51c15.13-1.45,26.78-6.16,35.73-12.13-5.39-13.4-10.86-21.35-15.16-26-14.08,19.8-31.23,27.62-31.23,27.62Z"/><path class="gh" d="M1605.67,696.94l-25.15-39.32c-1.65,22.18-9.14,38.85-17.79,51.01,4.3,4.66,9.77,12.6,15.16,26,22.34-14.9,27.78-37.69,27.78-37.69Z"/></g><path class="hg" d="M1632.41,1007.68c-12.54,.58-24.67,.21-32.77-.2,7.38-5.25,24.37-16.68,38.59-21.22l9.76-.58s3.31,5.03,4.49,16.54c-1.62,2.02-6.35,4.83-20.07,5.47Z"/><path class="hf" d="M1599.53,1007.55l.1-.07c8.1,.42,20.24,.78,32.77,.2,13.72-.63,18.45-3.45,20.07-5.47,.05,.53,.11,1.06,.15,1.62,.2,2.53-1.67,4.75-4.2,4.94-10.27,.78-35.73,2.53-48,1.89-1.62-.08-2.22-2.17-.9-3.11Z"/><path class="hg" d="M1722.08,1004.32c.92-5.89,2.39-14.39,3.53-16.57,1.78-3.41,7.89,0,7.89,0,0,0,4.29,2,6.26,5.33,1.26,2.12,4.74,8.17,7.1,12.27,.27,.47,.38,.97,.37,1.46l-24.46,.86c-.6-.96-.88-2.13-.69-3.36Z"/><path class="hf" d="M1747.23,1006.82c-.04,1.4-1.15,2.66-2.71,2.71l-17.43,.48c-1.84,.05-3.44-.91-4.32-2.33l24.46-.86Z"/><path class="ga" d="M1720.21,968.19c.21,.71,3.37,16.03,4.76,22.75,.38,1.86,2.06,3.16,3.95,3.07,1.04-.05,2.24-.14,3.5-.31,2.24-.29,3.95-2.16,4.03-4.42,.22-5.89,.33-17.2-1.83-21.58-2.98-6.05-14.41,.49-14.41,.49Z"/><path class="g`" d="M1649.91,972.58c-1.36-.04,.54,7-1.51,13.92-.46,1.56-1.63,2.79-3.26,2.81-1.06,.01-2.31,0-3.58-.11-1.91-.15-3.44-1.63-3.62-3.54l-1.67-17.95,13.63,4.88Z"/><path class="fy" d="M1611.99,781.72c.61,2.95,21.96,127.52,23.26,191.98,.02,1.08,.82,1.99,1.89,2.14,2.71,.38,7.99,.86,13.11-.09,.7-.13,1.23-.71,1.27-1.42,.75-12.01,6.75-113.58-.6-161.39,0,0,60.73,127.81,69.93,163.05,.22,.86,1.01,1.43,1.9,1.39,2.6-.14,8.01-.61,12.3-2.19,1.54-.57,2.42-2.18,2.03-3.78-5.14-21.09-41.19-166.4-65.66-198.41l-59.43,8.72Z"/><path class="gf" d="M1650.92,813.74c.2,0,.4-.08,.56-.23,.31-.31,.32-.81,.01-1.13l-8.13-8.32c-.31-.32-.81-.32-1.13-.01-.31,.31-.32,.81-.01,1.13l8.13,8.32c.16,.16,.36,.24,.57,.24Z"/><path class="gk" d="M1577.28,625.76c15.6-4.09,44.37-10.48,67.28-9.12,5.26,.31,9.48,4.47,9.77,9.73,3.46,61,8.19,115.14,17.09,146.63-20.01,7.92-39.86,11.59-59.43,8.72-14.66-31.41-27.49-67.67-38.44-108.85,0,0-6.43-32.85-.19-43.79,.97-1.71,2.25-2.88,3.91-3.32Z"/><path class="gj" d="M1614.8,583.03s3.94,23.5,5.11,34.37c.19,1.77-.73,3.44-2.31,4.25-4.31,2.22-13.5,5.79-23.51,2.51-1.65-.54-2.73-2.14-2.69-3.87l.69-31.37,22.71-5.88Z"/><g><path class="gi" d="M1589.11,556.99s-7.6,17.46-8.11,26.62c-.51,9.16-2.48,15.11,8.11,16.95,10.6,1.85,19.52-3.43,24.36-12.56,0,0,7.58-14.06,5.88-19.82-1.7-5.76-30.23-11.19-30.23-11.19Z"/><path class="fw" d="M1609.84,581.44h-1.34s5.52-11.32,.67-13.31c-4.85-1.99-24.06-5.91-28.2-12.72-4-6.57-.43-15.06,4.9-17.43,.34-.15,.73,0,.91,.33l.44,.84c.3,.57,1.15,.49,1.33-.14h0c.17-.59,.97-.72,1.29-.2,1.27,2.04,4.7,5.35,13.92,7.05,13.07,2.41,21.72,7.7,21.93,16.74,.01,.57,.63,.89,1.11,.59,.97-.59,2.51-.86,4.57,.87,3.59,3.02,2.12,10.85-5.75,17.29-.37,.31-.37,.89,.03,1.15,1.43,.93,3.55,3.14-1.96,6.08-5.64,3.01-8.97,2.68-10.23,2.36-.34-.09-.57-.4-.54-.74l.49-8.01c.03-.41-.3-.76-.72-.76h-2.86Z"/><path class="gg" d="M1609.52,583.12s2.9-11.15,7.9-8.03c5,3.13-2.59,12.5-6.61,12.91l-1.28-4.89Z"/></g><g><path class="hg" d="M1769.7,764.08l-307.61-63.78-7.77,30.76,300.97,90.05c.67,.2,1.35,.39,2.03,.56l10.26,2.59c17.61,4.45,34.32-1.57,37.33-13.44l3.57-14.12c3-11.88-8.84-25.11-26.46-29.56l-10.26-2.59c-.68-.17-1.36-.33-2.05-.47Zm18.03,34.9c-1.99,7.88-14.36,11.55-27.62,8.2-13.26-3.35-22.4-12.46-20.4-20.34,1.99-7.88,14.36-11.55,27.62-8.2,13.26,3.35,22.4,12.46,20.4,20.34Z"/><path class="hg" d="M1362.03,658.52l59.56,15.05c4.24,1.07,7.74,4.05,9.48,8.06l8.91,20.57c2.54,5.87,.81,12.72-4.22,16.68l-17.62,13.87c-3.44,2.71-7.93,3.66-12.17,2.59l-59.56-15.05c-8.98-2.27-16.62,7.11-12.37,15.34,10.15,19.71,28.76,35.3,52.46,41.28,42.83,10.83,80.73-15.12,91.15-56.32,10.41-41.2-10.61-82.04-53.44-92.86-23.7-5.99-47.48-1.12-65.78,11.4-7.65,5.23-5.39,17.11,3.6,19.38Z"/><path class="hh" d="M1360.61,664.13l59.56,15.05c4.24,1.07,7.74,4.05,9.48,8.06l8.91,20.57c2.54,5.87,.81,12.72-4.22,16.68l-17.62,13.87c-3.44,2.71-7.93,3.66-12.17,2.59l-59.56-15.05c-8.98-2.27-16.62,7.11-12.37,15.34,10.15,19.71,28.76,35.3,52.46,41.28,42.83,10.83,80.73-15.12,91.15-56.32s-10.61-82.04-53.44-92.86c-23.7-5.99-47.48-1.12-65.78,11.4-7.65,5.23-5.39,17.11,3.6,19.38Z"/><path class="hh" d="M1768.57,768.56l-307.61-63.78-7.77,30.76,300.97,90.05c.67,.2,1.35,.39,2.03,.56l10.26,2.59c17.61,4.45,34.32-1.57,37.33-13.44l3.57-14.12c3-11.88-8.84-25.11-26.46-29.56l-10.26-2.59c-.68-.17-1.36-.33-2.05-.47Zm18.03,34.9c-1.99,7.88-14.36,11.55-27.62,8.2-13.26-3.35-22.4-12.46-20.4-20.34,1.99-7.88,14.36-11.55,27.62-8.2,13.26,3.35,22.4,12.46,20.4,20.34Z"/></g><g><path class="ha" d="M1694.69,707c7.71,21.64,3.37,44.84,3.37,44.84l10.17,2.71s13.14-15.62,10.13-50.29c-9.39-1.43-18.18,.77-23.67,2.74Z"/><path class="hd" d="M1718.36,704.27c-.34-3.9-.87-8.02-1.66-12.41-6.87-38.24-55.89-67.65-67.42-74.09-1.07-.6-2.38,.21-2.34,1.44l1.64,51.98c27.3,3.67,40.22,19.29,46.11,35.82,5.49-1.97,14.28-4.17,23.67-2.74Z"/></g><path class="hc" d="M1510.05,755.33c-1.91-.53-3.45-1.88-4.26-3.69-1.56-3.5-3.32-9.1,.44-10.81,5.59-2.54,15.76,7.88,15.76,7.88l4.97,8.05,4.54,2.21c-4.16,1.15-12.19-.76-21.45-3.65Z"/><path class="hb" d="M1698.74,746.77h-12.57s10.2,6.12,10.54,12.55c.34,6.43-4.05,19.76-6.1,23.38-2.24,3.97,28.47-5.91,17.62-35.93h-9.49Z"/></g></g></g></svg>