<svg xmlns="http://www.w3.org/2000/svg" width="62" height="32" viewBox="0 0 78.704 40"><path fill="#C3002F" d="M2.774 19.988c0 1.085.243 2.115.669 3.039l6.768-10.315c-4.095 0-7.437 3.258-7.437 7.276zm2.963 5.826a7.515 7.515 0 0 0 4.474 1.474 7.559 7.559 0 0 0 4.494-1.47l-4.496-6.636-4.472 6.632z"/><path fill="#C3002F" d="M10.211 12.712l6.791 10.316c.43-.925.674-1.955.674-3.04 0-4.018-3.342-7.276-7.465-7.276z"/><path fill="#FFFFFE" d="M3.443 23.027a7.391 7.391 0 0 0 2.294 2.787l4.472-6.632 4.496 6.636a7.321 7.321 0 0 0 2.297-2.79l-6.791-10.316-6.768 10.315z"/><path fill="#002856" d="M10.211 10C4.585 10 0 14.486 0 19.988 0 25.513 4.585 30 10.211 30c5.632 0 10.24-4.487 10.24-10.012 0-5.502-4.608-9.988-10.24-9.988zm6.791 13.028a7.321 7.321 0 0 1-2.297 2.79 7.56 7.56 0 0 1-4.494 1.47 7.515 7.515 0 0 1-4.474-1.474 7.408 7.408 0 0 1-2.294-2.787 7.245 7.245 0 0 1-.669-3.039c0-4.019 3.342-7.276 7.437-7.276 4.123 0 7.465 3.258 7.465 7.276a7.192 7.192 0 0 1-.674 3.04z"/><path fill="none" d="M55.438 14.135a.473.473 0 0 0-.036.021c.014-.01.026-.014.036-.021zm-.12.078c-.017.02-.039.033-.062.053.026-.02.046-.034.062-.053z"/><path fill="none" d="M55.438 14.135a.473.473 0 0 0-.036.021c.014-.01.026-.014.036-.021zm-.12.078c-.017.02-.039.033-.062.053.026-.02.046-.034.062-.053z"/><path fill="#C3002F" d="M50.463 16.034a1.833 1.833 0 0 0 1.822-1.834 1.827 1.827 0 0 0-3.657 0 1.84 1.84 0 0 0 1.835 1.834z"/><path d="M46.963 25.574h2.919l1.733-8.559h-2.869zM31.249 13.363s-1.166-.019-1.641.892c-.476.907-5.96 11.319-5.96 11.319h3.492l1.557-3.177 3.471.012.282 3.156 3.387.002-1.52-12.204h-3.068zm-1.514 6.611l1.912-4.057.367 4.057h-2.279zm15.593-3.015c-.445-.229-2.016-.92-4.033.452l.938-4.064H39.08l-1.837 8.776s-.579 2.257 1.048 3.164c1.627.909 4.226.215 4.829-.047.603-.267 2.612-1.034 3.424-3.911.816-2.888-.773-4.147-1.216-4.37zm-2.23 5.037c-.556 1.023-1.226 1.344-1.565 1.44-.354.099-.762.085-1.011-.151-.241-.236-.258-.796-.18-1.197 0 0 .214-1.009.438-1.613.23-.605.792-1.286 1.334-1.416.539-.13 1.428-.244 1.465 1.103-.001-.001.077.809-.481 1.834zm13.652-2.973h1.943l.422-2.009-1.99.003.714-3.211h-1.047c-1.384 0-1.959.624-2.193 1.757l-.305 1.451h-1.342l-.419 2.009h1.337l-.902 4.362s-.361 1.618 1.442 2.155c0 0 1.029.304 2.643-.046l.48-2.227s-.662.196-1.107-.013c-.44-.223-.425-.76-.337-1.2.093-.434.661-3.031.661-3.031zm5.998-1.914c-2.93 1.032-3.793 3.971-3.855 5.223-.065 1.248.377 2.869 2.137 3.271 1.761.399 3.143-.706 3.711-1.538l.005.022v1.484h2.556v-.074s.012-1.538.252-3.353l1.094-5.029c-.002 0-2.97-1.052-5.9-.006zm2.097 4.1c-.106.474-.453 1.094-.692 1.441-.24.339-.855 1.016-1.584.773-.73-.237-.675-1.456-.527-2.081.148-.615.653-1.791 1.582-2.261.926-.475 1.737-.245 1.737-.245s-.399 1.899-.516 2.373zm12.417-4.258c-.443-.227-2.091-.903-4.122.477l.984-4.079-3.159-.002-1.788 8.769s-.581 2.255 1.044 3.164c1.624.911 4.223.216 4.83-.046.607-.267 2.615-1.029 3.427-3.911.809-2.889-.775-4.15-1.216-4.372zm-2.231 5.035c-.56 1.025-1.223 1.352-1.576 1.444-.341.1-.763.085-1.006-.153-.241-.236-.252-.794-.176-1.199 0 0 .215-1.009.443-1.61.227-.605.787-1.282 1.329-1.418.542-.127 1.419-.24 1.465 1.102.001-.001.077.811-.479 1.834z" fill="#002856"/><path fill="none" d="M55.448 14.241zm-.122.079a.266.266 0 0 1-.061.042c.025-.012.038-.024.061-.042z"/></svg>