<svg xmlns="http://www.w3.org/2000/svg" width="55" height="32" viewBox="0 0 69.826 40"><path fill-rule="evenodd" clip-rule="evenodd" fill="#FFF" d="M0 12h69.826v14H0z"/><path fill-rule="evenodd" clip-rule="evenodd" fill="#003380" d="M.85 15.466h68.121v9.683H.85z"/><g fill="#B9C409"><path d="M68.971 12.772H.854v2.851h25.17l-.475 1.795a9.01 9.01 0 0 0-.139.531 3.444 3.444 0 0 0-.086.527c-.109-.358-.3-.632-.572-.822-.27-.179-.627-.274-1.068-.274-.901 0-1.639.315-2.209.956-.574.635-.961 1.328-1.169 2.09a.047.047 0 0 1-.007.017c-.005.002-.006.01-.006.017-.009.038-.019.079-.026.116a5.173 5.173 0 0 0-.104.585 2.922 2.922 0 0 0-.033.432c0 .56.147 1.024.444 1.395.296.38.795.564 1.497.564.425 0 .831-.09 1.219-.27.387-.186.727-.46 1.023-.829l-.254 1.016h1.514c.043-.195.086-.387.13-.578.048-.196.094-.389.146-.585.016-.098.039-.191.063-.29.022-.096.049-.191.075-.287l1.636-6.104h41.349v-2.853zm-44.156 7.242c-.005.059-.01.113-.019.169a.766.766 0 0 1-.019.168c-.013.058-.026.118-.043.171-.021.057-.036.112-.058.174s-.04.119-.058.173c-.15.372-.375.709-.68 1.017a1.5 1.5 0 0 1-1.108.458c-.359 0-.61-.116-.756-.349a1.468 1.468 0 0 1-.221-.8c0-.055.003-.109.008-.173.004-.06.009-.118.018-.174.01-.059.018-.118.031-.177.014-.06.027-.119.042-.174.019-.051.034-.101.048-.151a.483.483 0 0 1 .055-.149c.133-.387.342-.738.626-1.053.282-.313.652-.472 1.112-.472.386 0 .652.116.804.349.149.233.224.509.224.82.001.058-.001.116-.006.173z"/><path d="M13.547 17.458a1.873 1.873 0 0 0-1.506.448 4.092 4.092 0 0 0-.884 1.092l.364-1.509h-1.453l-.099.451c-.034.15-.073.3-.116.44-.006.034-.014.065-.016.096-.004.035-.012.063-.018.088a7.563 7.563 0 0 0-.095.36c-.028.123-.056.244-.082.364l-1.126 4.179h1.602l.664-2.465.026-.122a.633.633 0 0 1 .036-.131c.016-.048.028-.092.037-.131a3.82 3.82 0 0 1 .678-1.202c.299-.369.727-.55 1.286-.55.093 0 .185.004.274.02.094.023.179.038.263.064l.389-1.449c-.075-.017-.148-.028-.224-.043zm3.917-.125c-.967 0-1.792.298-2.476.897s-1.147 1.352-1.391 2.253a4.657 4.657 0 0 0-.112.538c-.026.173-.038.34-.038.501 0 .67.217 1.184.658 1.545.438.364 1.067.546 1.896.546.218 0 .438-.012.662-.039.227-.023.45-.059.677-.106.149-.026.298-.059.443-.102.146-.048.295-.094.443-.151l.337-1.342c-.342.17-.687.312-1.036.429a3.336 3.336 0 0 1-1.051.177c-.436 0-.787-.102-1.059-.313-.272-.197-.407-.497-.407-.88 0-.05.004-.103.007-.146.004-.05.011-.102.018-.161h4.17c.009-.029.017-.06.028-.088.014-.03.022-.062.03-.092a.138.138 0 0 0 .022-.041c.002-.014.01-.027.016-.041.018-.041.036-.083.054-.13a.754.754 0 0 0 .035-.14c.048-.192.09-.38.117-.564a3.72 3.72 0 0 0 .047-.547c0-.577-.164-1.058-.487-1.436-.327-.381-.862-.567-1.603-.567zm.58 2.303a4.447 4.447 0 0 1-.042.269h-2.703c.142-.392.37-.741.681-1.037a1.597 1.597 0 0 1 1.146-.447c.344 0 .586.095.727.285.145.188.215.412.215.683a2.037 2.037 0 0 1-.024.247z"/></g><path fill-rule="evenodd" clip-rule="evenodd" fill="#FFF" d="M56.078 22.004c.219.121.447.223.691.301.238.083.498.121.772.121.076 0 .156-.001.239-.01.083-.007.17-.022.262-.047.177-.04.34-.109.492-.213a.665.665 0 0 0 .299-.403.186.186 0 0 0 .013-.053v-.056c0-.13-.062-.234-.184-.314a2.636 2.636 0 0 0-.443-.231c-.076-.03-.151-.06-.232-.084-.079-.035-.157-.066-.231-.107a2.801 2.801 0 0 1-.752-.448c-.225-.182-.338-.454-.338-.81 0-.061.006-.134.014-.21.009-.077.025-.156.051-.236.135-.508.412-.897.837-1.178a3.833 3.833 0 0 1 1.353-.559c.157-.028.316-.046.467-.06a4.067 4.067 0 0 1 1.201.04c.248.042.489.097.721.165l-.424 1.162a4.872 4.872 0 0 0-.609-.169 3.217 3.217 0 0 0-.893-.054 2.97 2.97 0 0 0-.274.035 2.032 2.032 0 0 0-.478.188.564.564 0 0 0-.287.369.1.1 0 0 0-.014.055v.055c0 .123.062.219.189.296.125.073.274.144.451.21.073.033.151.06.231.082.076.027.155.055.232.089.28.103.54.246.768.43.229.179.343.455.343.823l-.023.23a1.414 1.414 0 0 1-.05.255 2.125 2.125 0 0 1-.913 1.277c-.459.3-.947.486-1.463.56a2.574 2.574 0 0 1-.352.046 4.624 4.624 0 0 1-.353.011c-.308 0-.604-.021-.895-.07-.287-.05-.569-.109-.843-.181l.425-1.307zm-2.325-1.507c.031-.123.057-.246.071-.369.021-.123.027-.253.027-.383 0-.339-.084-.629-.25-.888-.166-.252-.454-.381-.863-.381-.46 0-.855.164-1.189.492a3.259 3.259 0 0 0-.75 1.078 1.48 1.48 0 0 0-.082.207c-.021.065-.039.129-.057.192-.016.064-.028.132-.043.192a3.232 3.232 0 0 0-.032.197c-.017.071-.023.14-.03.205a2.422 2.422 0 0 0-.006.194c.006.328.096.616.262.87.168.246.463.373.877.373.451 0 .837-.162 1.164-.478.324-.319.569-.671.738-1.06.031-.073.064-.145.094-.225.029-.07.051-.145.069-.216zm1.651.034a4.039 4.039 0 0 1-1.49 2.235c-.74.565-1.598.847-2.565.847-.8 0-1.415-.201-1.847-.601-.428-.396-.643-.934-.643-1.612 0-.143.014-.298.037-.459.023-.158.059-.322.098-.495a4.095 4.095 0 0 1 1.486-2.252 4.077 4.077 0 0 1 2.559-.861c.801 0 1.419.211 1.85.626.436.419.649.966.639 1.644 0 .143-.01.293-.029.457a4.517 4.517 0 0 1-.095.471zm-9.197-.119c.025-.098.042-.193.054-.294.015-.096.022-.188.022-.288 0-.304-.08-.577-.24-.812-.156-.24-.421-.355-.785-.355-.451 0-.827.153-1.122.468a2.824 2.824 0 0 0-.632 1.026c-.018.04-.031.081-.045.122-.013.041-.02.082-.029.123a2.264 2.264 0 0 0-.102.688c0 .297.072.557.222.784.145.224.396.334.756.334.426 0 .791-.147 1.101-.452.308-.301.538-.63.688-.994.025-.062.045-.127.062-.182l.05-.168zm2.375-2.91l-1.4 5.238c-.282 1.049-.754 1.855-1.404 2.419l-.09.07h-4.545l.359-.978c.264.139.544.251.832.346a3.119 3.119 0 0 0 1.163.126c.081-.009.162-.019.244-.036a2.4 2.4 0 0 0 .766-.261c.248-.13.462-.316.636-.549.099-.127.187-.267.258-.424a7.8 7.8 0 0 0 .192-.455 8.92 8.92 0 0 0 .114-.378c.032-.12.065-.237.1-.348a3.542 3.542 0 0 1-1.038.835 2.928 2.928 0 0 1-1.228.359h-.111c-.66 0-1.133-.187-1.416-.564-.281-.37-.426-.831-.426-1.367.01-.13.02-.265.033-.409a2.64 2.64 0 0 1 .068-.425c.008-.041.02-.083.031-.134.012-.047.023-.098.03-.143a5.276 5.276 0 0 1 1.15-2.1c.559-.632 1.29-.946 2.191-.946.435 0 .8.087 1.095.253.296.171.489.444.581.822l.288-.953h1.527zm-9.621 3.248c-.032-.007-.064-.007-.095-.007h-.712a3.806 3.806 0 0 0-.456.041 2.802 2.802 0 0 0-.888.267c-.275.137-.461.37-.549.69-.012.03-.017.063-.021.096s-.006.067-.006.096c0 .185.076.328.232.427a.929.929 0 0 0 .542.154c.511 0 .928-.178 1.258-.531.328-.352.557-.742.681-1.158 0-.02.001-.032.009-.044a.14.14 0 0 0 .005-.031zm-.649 2.718l.211-.893a2.892 2.892 0 0 1-.807.64 2.73 2.73 0 0 1-.934.301 1.078 1.078 0 0 1-.226.03c-.073.001-.149.005-.223.005-.51 0-.928-.107-1.25-.319-.326-.215-.486-.542-.477-.984a1.944 1.944 0 0 1 .074-.544c.165-.618.497-1.069.986-1.342a4.535 4.535 0 0 1 1.566-.531c.183-.021.367-.04.551-.057.186-.01.363-.015.539-.015.072 0 .146 0 .217.005a2.636 2.636 0 0 0 .296.01c.024.013.05.013.077.013.047 0 .096 0 .143.004.042.003.092.005.145.005a4.46 4.46 0 0 0 .056-.266 1.52 1.52 0 0 0 .019-.24c0-.275-.094-.479-.275-.61-.185-.137-.461-.202-.825-.202a3.462 3.462 0 0 0-.79.097 5.197 5.197 0 0 0-.671.227 4.281 4.281 0 0 0-.63.329l.314-1.34c.124-.048.247-.093.373-.125.125-.039.25-.071.375-.104.25-.062.502-.112.758-.14a7.07 7.07 0 0 1 .744-.041h.149c.052 0 .101.001.149.013.359.015.701.086 1.026.22.327.128.567.342.714.638a1 1 0 0 1 .088.281c.018.105.025.203.025.312 0 .086-.006.178-.012.273a6.8 6.8 0 0 1-.037.28c-.027.097-.047.196-.068.282-.024.094-.046.187-.069.271-.162.592-.313 1.176-.464 1.763-.15.58-.287 1.163-.414 1.755h-1.423zm-5.882-2.971a.949.949 0 0 0 .037-.151c.009-.054.014-.108.027-.163.015-.082.027-.162.035-.233a2.3 2.3 0 0 0 .014-.225c0-.294-.071-.54-.207-.745-.137-.205-.393-.308-.758-.308-.449 0-.826.158-1.132.472a3.12 3.12 0 0 0-.68 1.039 3.188 3.188 0 0 0-.116.327c-.032.121-.059.24-.072.358a2.046 2.046 0 0 0-.025.367c0 .295.07.554.219.769.146.217.402.325.781.325.401 0 .747-.138 1.038-.424.292-.287.519-.602.676-.938l.094-.24c.029-.08.051-.159.069-.23zm-5.646 4.732l1.618-6.004a5.96 5.96 0 0 0 .109-.433c.035-.144.071-.292.114-.447.034-.146.065-.291.093-.433.029-.149.057-.29.082-.438h1.541l-.227.944c.331-.35.692-.603 1.075-.78.384-.173.793-.26 1.226-.26.668 0 1.144.191 1.427.574.284.383.424.845.424 1.381 0 .169-.009.343-.036.52a4.499 4.499 0 0 1-.111.547 5.413 5.413 0 0 1-1.164 2.174c-.569.649-1.322.976-2.266.976a2.15 2.15 0 0 1-1.002-.229 1.266 1.266 0 0 1-.625-.701c-.009.072-.02.146-.042.224a5.09 5.09 0 0 0-.058.236c-.015.081-.036.157-.056.232a1.946 1.946 0 0 1-.068.214l-.455 1.702h-1.599z"/></svg>